<svg width="207" height="51" viewBox="0 0 207 51" fill="none" xmlns="http://www.w3.org/2000/svg">
<path d="M16.7549 16.2413C16.615 15.7087 15.7881 15.1448 14.7267 14.8833C14.1051 14.74 13.454 14.7066 12.7352 14.7493C11.5493 14.8199 10.1944 15.0808 8.63247 15.4982C8.52466 15.5047 6.70472 15.8293 3.10078 16.4764C2.99511 16.5187 2.93179 16.6668 2.94675 16.9183C2.98522 17.5652 3.2667 18.0533 3.75525 18.3849C4.05984 18.6553 4.49962 18.7734 5.04081 18.7773C4.88036 19.1114 4.12127 22.1137 2.80162 27.8182C1.47982 33.4866 0.832821 36.5545 0.856331 36.9498C0.888391 37.4888 1.05137 37.8037 1.31362 37.9684C2.02633 38.4309 2.58034 38.6504 2.90377 38.6312C3.15532 38.6162 3.29052 38.4639 3.27128 38.1405C3.26487 38.0327 3.21611 37.8192 3.21397 37.7833L3.2097 37.7114C3.16482 36.9567 4.75273 30.9118 7.9375 19.5787C8.1566 18.4116 8.25158 18.1896 7.55169 17.9427C7.58763 17.9406 8.19427 17.8324 9.44564 17.6498C10.6949 17.4312 11.6249 17.3038 12.2718 17.2653C13.2421 17.2076 13.7178 17.3235 13.6609 17.5794C13.4632 19.1058 12.6703 22.1462 11.2484 26.7388C9.82445 31.2953 9.20269 34.1813 9.30916 35.3651C9.41563 36.5489 10.1202 37.4807 11.0905 37.423C11.4858 37.3995 11.7434 36.8793 11.7892 35.8307C12.2262 31.6574 13.2386 28.0629 14.6796 23.7939C15.4182 21.6582 15.9667 19.9667 16.2872 18.6854C16.6838 17.4717 16.8524 16.6683 16.7549 16.2413Z" fill="#C7A967"/>
<path d="M16.7141 50.1796C16.1216 49.3133 15.9009 48.0281 16.1239 46.3198C16.2309 45.0873 16.7115 42.8589 17.4958 39.6747C18.5142 35.575 20.9594 31.2101 24.0565 28.1048C25.1128 27.0682 25.8756 26.554 26.3069 26.5284C26.4865 26.5177 26.5691 26.6931 26.5905 27.0525C26.6927 28.1644 26.1715 29.71 25.0989 31.6852C24.3514 33.064 22.8322 34.2002 21.4136 33.9961C21.3396 33.9644 21.2677 33.9687 21.2339 34.0067C20.9866 34.0936 20.9656 34.3473 21.245 34.7995C21.6852 35.5306 22.3175 35.8537 23.1799 35.8024C24.1502 35.7447 25.1287 35.2176 26.0412 34.1897C26.9538 33.1617 27.6465 32.0746 28.1193 30.9285C28.5921 29.7824 28.8642 28.9007 28.8595 28.2158C28.9139 27.311 28.6851 26.4951 28.1011 25.7725C27.5172 25.0499 26.8468 24.6931 26.0203 24.7422C25.6969 24.7615 25.4115 24.8145 25.1664 24.9373C24.2513 25.3163 23.0871 26.3592 21.7099 28.064C21.2029 28.6351 20.6369 29.4261 20.0097 30.4011C21.3181 26.9333 22.1644 24.7912 22.5465 23.9391C22.8926 23.089 22.6788 22.5247 22.2052 22.4447C21.4398 22.3099 20.9346 22.3039 20.6894 22.4266C20.3048 22.6298 19.8256 23.6681 19.1778 25.5098C18.281 28.0155 17.5827 30.2208 17.0132 32.1661C15.5935 36.7945 14.6003 40.7124 13.9957 43.8859C13.964 43.9599 13.9704 44.0677 13.943 44.2136C13.5301 46.3659 13.4423 47.9219 13.7494 48.8413C13.885 49.302 14.122 49.6486 14.3928 49.957C15.0063 50.5697 15.6702 50.8187 16.3825 50.6682C16.7757 50.6087 16.9088 50.4205 16.7141 50.1796Z" fill="#C7A967"/>
<path d="M32.8904 36.3428C33.8671 36.3929 35.1578 35.0539 37.2615 32.224C38.3303 30.7901 39.0337 29.8827 39.3357 29.5041C39.058 31.5041 39.2915 33.0049 40.032 33.9346C40.7725 34.8643 41.7346 35.2759 42.8782 35.0997C43.8061 34.9363 44.8098 34.2274 45.8892 32.9731C46.7659 31.9473 47.2284 31.2346 47.2408 30.8371C47.2682 30.6912 47.1604 30.6977 46.9871 30.8161L45.9792 31.4531C44.5909 32.3651 43.0503 33.142 42.08 33.1997C41.3972 33.2403 41.2252 32.1686 41.4251 30.6781C41.6566 29.1136 42.0088 27.7583 42.3695 26.5468C42.5317 25.6355 42.8487 25.5085 42.3366 24.7816C42.0171 24.2597 41.2325 23.8014 40.6956 23.8694C40.1861 23.7915 39.0903 25.9845 38.8221 26.325C38.5876 26.6274 38.1863 27.1562 37.6879 27.871L36.8916 29.0364C35.2778 31.0077 34.2069 32.4057 33.7402 33.0466C33.3367 33.5394 33.1677 33.7297 33.1318 33.7319L32.988 33.7404C32.766 33.6454 32.9196 32.5905 33.4151 30.6136C34.2465 28.22 35.169 26.1456 35.4561 25.5154C35.6165 25.1813 35.6713 24.8895 35.6585 24.6739C35.6264 24.1348 35.3111 23.6848 34.7084 23.2518C34.1415 22.8167 33.6658 22.7007 33.3488 22.8278C32.998 22.9929 32.5864 23.955 32.0759 25.6804C31.5654 27.4057 31.2218 28.9048 30.9689 30.1099C30.1555 34.0171 30.7847 36.1074 32.8904 36.3428Z" fill="#C7A967"/>
<path d="M50.1025 34.7782C51.2525 34.7098 52.2078 34.4005 52.9325 33.8525C54.0017 33.0316 54.72 32.3758 55.0897 31.921C55.6916 31.1279 55.9766 30.4618 55.9403 29.8509C55.9296 29.6712 55.8872 29.5655 55.7816 29.6079C52.9904 31.7935 50.8222 32.9322 49.2769 33.0241C48.8097 33.0519 48.4418 32.9295 48.1732 32.657C47.9404 32.3823 47.8113 32.0294 47.7877 31.6341C47.73 30.6638 48.1943 29.3739 49.2185 27.7983C49.9788 26.6352 50.5132 25.9182 50.8238 25.6833C51.1365 25.4844 51.3457 25.3638 51.4895 25.3552C51.6332 25.3467 52.0456 25.6106 52.4833 25.6928C52.737 25.7138 52.8829 25.7412 52.9907 25.7347C53.4579 25.707 53.6966 25.4764 53.6709 25.0451C53.6346 24.4342 53.2748 23.8425 52.6297 23.3039C52.0629 22.8688 51.4729 22.6514 50.898 22.6856C50.1792 22.7284 49.3783 23.2088 48.4593 24.1289C46.8644 25.8106 45.473 28.4899 45.6162 30.8977C45.6889 32.1195 46.1461 33.1382 47.0218 33.9156C47.7452 34.5577 48.7728 34.8573 50.1025 34.7782Z" fill="#C7A967"/>
<path d="M58.5514 33.7347C59.7014 33.6663 61.0474 32.6486 62.6231 30.6435L63.5271 29.4718C63.6285 29.3576 63.7278 29.2074 63.8925 28.9452C64.3212 28.2705 64.6126 27.7122 64.6332 26.8455C64.6627 26.7355 64.652 26.5559 64.6392 26.3402C64.5964 25.6215 64.2007 25.032 63.7883 24.768C63.3759 24.504 62.4771 23.9444 62.0626 23.6445C61.7601 23.41 61.6078 23.2748 61.6014 23.167L61.5971 23.0951C61.5886 22.9514 61.5039 22.74 61.3409 22.4252C61.0256 21.9751 60.0464 21.276 59.5095 21.344C58.795 21.4586 57.944 22.9157 57.3296 24.1063C56.9412 24.8507 56.4346 26.0348 56.3374 26.2209C55.5352 27.8915 55.1578 29.4286 55.2454 30.902C55.3288 32.3035 55.9551 33.1318 57.1285 33.4587C57.6107 33.6825 58.0843 33.7625 58.5514 33.7347ZM57.8166 31.6867C57.6369 31.6974 57.5205 31.5601 57.5034 31.2726C57.4842 30.9492 57.5959 30.4016 57.8385 29.6298C58.5008 27.4266 59.2483 26.0478 60.0471 25.5315C60.4993 25.2521 61.1906 25.3552 61.7741 25.4648L62.2118 25.547C62.3641 25.6822 62.4445 25.8216 62.4552 26.0013C62.4894 26.5763 61.8326 27.6612 60.5209 29.2539C59.2091 30.8466 58.3197 31.6568 57.8166 31.6867Z" fill="#C7A967"/>
<path d="M70.0102 33.5942C71.8789 33.483 74.178 32.1201 75.3482 30.5719L75.4812 30.3837C76.0473 29.5927 76.2582 28.8949 76.1543 28.3602C76.1119 28.2545 76.0739 28.2207 76.0401 28.2588C74.0459 30.5051 71.8798 31.6798 69.544 31.8187C68.8252 31.8615 68.3136 31.7476 68.0068 31.4413C67.4336 30.8984 67.3062 29.9683 67.6266 28.687C68.2611 29.046 68.9926 29.2189 69.7832 29.1718C69.9989 29.159 70.1426 29.1505 70.2483 29.1081C71.9857 28.6081 73.1896 27.0218 73.6325 25.3726C73.7801 24.8229 73.8537 24.2415 73.8195 23.6665C73.8045 23.4149 73.7917 23.1993 73.7472 23.0577C73.6031 22.4532 73.2899 22.0391 72.7697 21.7815C72.3975 21.5872 71.9958 21.5029 71.6005 21.5265C70.199 21.6098 68.7748 22.524 67.2897 24.2352C65.8407 25.9442 65.1526 27.7162 65.2638 29.5849C65.3429 30.9145 65.5738 31.7663 66.7413 32.5985C67.7586 33.3314 68.8243 33.6647 70.0102 33.5942ZM68.3634 27.1285C69.1233 25.3523 71.9671 22.839 72.1091 23.4076C72.2297 23.6168 72.006 24.0989 71.404 24.8921C70.838 25.6831 70.3986 26.178 70.088 26.4129C69.4437 27.1003 68.8456 27.3523 68.3634 27.1285Z" fill="#C7A967"/>
<path d="M75.8948 47.309C79.6681 47.0846 82.6168 43.3028 84.8106 35.9236C84.9582 35.3738 85.2723 33.9847 85.7126 31.6865C86.1529 29.3883 86.4709 27.4581 86.6665 25.8957C86.7255 25.6758 86.9514 25.2296 87.3421 24.5212C87.7686 23.8106 87.9522 23.2587 87.9308 22.8993C87.9073 22.504 87.7084 22.1913 87.3319 21.9252C87.0295 21.6907 86.2577 21.4481 86.0802 21.4947C85.6913 21.6261 85.3109 21.9011 84.9391 22.3199C83.9069 21.3355 82.8348 20.8944 81.7567 20.9585C81.2536 20.9884 80.7252 21.2001 80.1716 21.5937C78.5805 22.7342 77.3449 24.3945 76.4267 26.5408C75.633 28.3551 75.2851 29.7823 75.3471 30.8244C75.3706 31.2197 75.4258 31.541 75.5486 31.7862C75.8895 32.6675 77.1288 33.4954 78.171 33.4334C78.9257 33.3885 79.9632 32.6416 81.2116 31.1969C82.4579 29.7163 83.4907 28.2845 84.31 26.9014C84.2176 27.7724 84.1418 28.3179 84.0806 28.5018C83.9352 29.0875 83.7982 29.8169 83.6677 30.6541C83.5372 31.4914 83.4212 31.9671 83.3917 32.077C82.8333 34.815 81.9809 37.4623 80.7038 40.243C79.4625 43.0216 77.6288 44.9338 75.7242 45.0471C73.6758 45.169 72.5058 43.6878 71.5083 40.862C71.4193 40.5788 71.3094 40.5493 71.2123 40.7354C70.9842 41.1457 70.9149 41.7989 70.964 42.6255C71.1329 45.4644 73.1996 47.4693 75.8948 47.309ZM77.6749 31.1548C77.4952 31.1655 77.4169 31.062 77.4019 30.8104C77.3827 30.487 77.5662 29.9351 77.9188 29.1929C78.2692 28.4147 78.6282 27.7803 78.9238 27.2938L79.7496 26.0186C81.0485 24.2103 82.0753 23.2837 82.7581 23.2431C83.0097 23.2281 83.4178 23.4202 83.9444 23.7856C83.3617 24.9022 82.2972 26.408 80.7869 28.301C79.2745 30.1581 78.2498 31.1206 77.6749 31.1548Z" fill="#C7A967"/>
<path d="M91.0766 32.8822C92.0533 32.9323 93.3441 31.5933 95.4478 28.7634C96.5165 27.3294 97.2199 26.4221 97.522 26.0435C97.2442 28.0435 97.4777 29.5443 98.2182 30.4739C98.9587 31.4036 99.9209 31.8152 101.064 31.639C101.992 31.4756 102.996 30.7668 104.075 29.5125C104.952 28.4866 105.415 27.7739 105.427 27.3765C105.454 27.2306 105.347 27.237 105.173 27.3555L104.165 27.9925C102.777 28.9045 101.236 29.6813 100.266 29.7391C99.5834 29.7797 99.4115 28.708 99.6114 27.2175C99.8429 25.653 100.195 24.2977 100.556 23.0861C100.718 22.1749 101.035 22.0479 100.523 21.321C100.203 20.799 99.4187 20.3408 98.8818 20.4088C98.3723 20.3309 97.2766 22.5238 97.0083 22.8644C96.7739 23.1668 96.3725 23.6956 95.8741 24.4104L95.0779 25.5757C93.4641 27.547 92.3932 28.9451 91.9264 29.5859C91.523 30.0787 91.354 30.2691 91.318 30.2713L91.1743 30.2798C90.9522 30.1848 91.1059 29.1298 91.6014 27.1529C92.4327 24.7593 93.3552 22.6849 93.6423 22.0548C93.8028 21.7207 93.8575 21.4289 93.8447 21.2133C93.8127 20.6742 93.4974 20.2241 92.8946 19.7912C92.3278 19.356 91.852 19.2401 91.535 19.3671C91.1842 19.5323 90.7726 20.4944 90.2621 22.2197C89.7517 23.9451 89.4081 25.4441 89.1552 26.6493C88.3417 30.5565 88.9709 32.6468 91.0766 32.8822Z" fill="#C7A967"/>
<path d="M105.435 31.2348C105.854 31.6066 106.308 31.3632 106.221 30.5029C106.038 29.2515 106.021 28.351 106.202 27.7632C107.606 27.7157 108.7 27.3261 109.222 27.0065L110.539 26.0987C110.544 26.7837 110.535 27.253 110.552 27.5405C110.64 29.0139 111.309 29.9478 112.59 30.2683C113.028 30.3505 113.427 30.3988 113.751 30.3796C114.541 30.3326 115.319 30.07 116.046 29.5579C116.462 29.2807 116.874 28.9316 117.278 28.4388C118.794 26.6536 119.514 25.4207 119.474 24.7379C119.457 24.4504 119.235 24.3554 119.135 24.5056C118.362 25.4531 117.65 26.2167 116.995 26.7245C115.649 27.7422 114.675 28.3411 113.999 28.4895C113.893 28.5319 113.714 28.5426 113.498 28.5554C112.743 28.6003 112.36 28.2264 112.316 27.4717C112.288 27.0045 112.454 26.1652 112.608 25.7232L113.129 24.1776C114.995 22.1913 115.882 20.7321 115.824 19.7618C115.8 19.3665 115.635 19.0157 115.293 18.7115C114.952 18.4432 114.656 18.3166 114.369 18.3337C113.398 18.3914 112.577 19.7385 111.815 21.4788C111.469 22.3289 111.245 22.811 111.144 22.9253C110.696 23.2765 109.998 23.6786 109.054 24.1675C108.143 24.6184 107.473 24.8746 107.042 24.9003C107.132 24.6064 107.28 24.0566 107.558 23.2827C107.837 22.5088 108.046 21.7751 108.261 21.1493C108.474 20.4874 108.594 20.0836 108.586 19.9398C108.554 19.4008 107.558 19.0273 106.264 19.1042C106.002 18.9395 105.762 20.9733 105.422 21.9312L104.967 23.3647C104.692 24.2105 104.448 24.9463 104.228 25.5004C103.714 25.3506 103.425 25.3318 103.397 25.4776C103.302 25.6997 103.281 25.9534 103.301 26.2768C103.331 26.7799 103.534 27.1645 103.912 27.4666C103.837 28.012 103.828 28.4813 103.852 28.8766C103.867 29.1282 103.918 29.3776 103.971 29.663C104.111 30.1956 104.576 30.7449 105.435 31.2348Z" fill="#C7A967"/>
<path d="M128.002 30.109C129.218 29.9285 130.433 29.135 131.649 27.7643C132.492 26.7766 132.957 26.0998 132.969 25.7023C132.963 25.5945 132.891 25.5988 132.718 25.7173C132.612 25.7597 131.237 26.8873 129.872 27.5816C129.208 27.9456 128.606 28.1257 128.067 28.1578C127.743 28.177 127.489 28.156 127.303 28.0589C126.933 27.9006 126.732 27.5519 126.704 27.0847C126.664 26.4019 126.887 25.3067 127.406 23.7251C127.746 22.7673 128.468 21.5703 128.491 21.3525C128.51 21.0629 128.322 20.9299 127.927 20.9534C127.891 20.9555 127.605 21.0085 127.106 21.1103C127.603 20.3595 127.852 19.6956 127.815 19.0847C127.753 18.0425 126.897 17.5886 125.28 17.6847C123.806 17.7724 122.511 18.4264 121.463 19.6067C120.415 20.787 119.936 21.8253 119.994 22.7956C120.062 23.9455 120.815 24.4778 122.253 24.3923C122.576 24.373 122.933 24.3157 123.324 24.2204L121.901 25.7476L121.322 26.323C120.673 26.9386 120.221 27.2179 119.646 27.2521C119.358 27.2692 119.018 27.0009 118.624 26.4473C118.265 25.8556 117.888 25.5895 117.493 25.613C116.738 25.6579 116.411 26.2183 116.473 27.2605C116.483 27.4402 116.532 27.6537 116.585 27.939C116.929 29.4693 117.874 30.2065 119.419 30.1146C120.39 30.0569 121.431 29.3818 122.581 28.0873C123.728 26.7569 124.592 25.5154 125.136 24.365C124.807 25.5026 124.649 26.4857 124.696 27.2763C124.833 29.5762 126.535 30.3045 128.002 30.109ZM123.165 22.7512C122.626 22.7833 122.326 22.5848 122.302 22.1895C122.272 21.6864 122.563 21.1281 123.174 20.4787C123.82 19.8272 124.414 19.5033 124.989 19.4691C125.42 19.4435 125.649 19.6463 125.677 20.1135C125.694 20.4009 125.643 20.7646 125.561 21.2022C125.202 21.8367 124.135 22.6935 123.165 22.7512Z" fill="#C7A967"/>
<path d="M140.533 14.3613C141.359 14.3122 142.171 14.0114 142.965 13.4232C143.76 12.835 144.374 12.2575 144.74 11.7309C145.141 11.2021 145.473 10.7136 145.732 10.2293C146.072 9.27144 144.805 7.97639 144.224 8.51583L142.257 10.6163L141.543 11.344C140.996 11.8454 140.611 12.0485 140.216 12.0721C139.821 12.0956 139.347 12.0155 138.795 11.832C138.241 11.6125 137.912 11.5239 137.732 11.5346C137.193 11.5667 136.916 11.7634 136.939 12.1587C136.972 12.6978 137.363 13.2155 138.114 13.7118C138.865 14.2081 139.67 14.4126 140.533 14.3613ZM133.155 30.3796C134.131 30.4297 135.422 29.0907 137.526 26.2608C138.595 24.8268 139.298 23.9195 139.6 23.5409C139.322 25.5409 139.556 27.0417 140.296 27.9714C141.037 28.901 141.999 29.3126 143.142 29.1364C144.07 28.973 145.074 28.2642 146.153 27.0099C147.03 25.9841 147.493 25.2713 147.505 24.8739C147.532 24.728 147.425 24.7344 147.251 24.8529L146.243 25.4899C144.855 26.4019 143.314 27.1788 142.344 27.2365C141.661 27.2771 141.489 26.2054 141.689 24.7149C141.921 23.1504 142.273 21.7951 142.634 20.5835C142.796 19.6723 143.113 19.5453 142.601 18.8184C142.281 18.2964 141.497 17.8382 140.96 17.9062C140.45 17.8283 139.355 20.0212 139.086 20.3618C138.852 20.6642 138.451 21.193 137.952 21.9078L137.156 23.0732C135.542 25.0444 134.471 26.4425 134.004 27.0833C133.601 27.5762 133.432 27.7665 133.396 27.7687L133.252 27.7772C133.03 27.6822 133.184 26.6272 133.679 24.6503C134.511 22.2568 135.433 20.1823 135.72 19.5522C135.881 19.2181 135.936 18.9263 135.923 18.7107C135.891 18.1716 135.575 17.7216 134.973 17.2886C134.406 16.8535 133.93 16.7375 133.613 16.8645C133.262 17.0297 132.851 17.9918 132.34 19.7171C131.83 21.4425 131.486 22.9415 131.233 24.1467C130.42 28.0539 131.049 30.1442 133.155 30.3796Z" fill="#C7A967"/>
<path d="M154.282 16.4286C154.965 16.388 156.525 15.9346 156.597 15.9303C157.451 15.7353 158.622 15.4132 160.074 14.9662C161.526 14.5192 162.263 14.1869 162.248 13.9353C162.343 13.7133 162.366 13.4955 162.354 13.2799C162.317 12.669 161.687 12.3819 160.429 12.4567C159.89 12.4887 158.607 12.7454 156.614 13.1885C156.185 13.2501 153.597 13.404 153.259 13.7847C153.016 13.9434 152.934 14.3811 152.977 15.0998C153.016 15.7466 153.221 16.1672 153.555 16.3276C153.669 16.429 153.923 16.45 154.282 16.4286ZM147.581 29.8822C147.941 29.8608 148.359 29.6196 148.834 29.1225C148.864 29.0125 149.968 26.9634 151.518 24.527C152.31 23.2898 153.075 22.1985 153.778 21.2911C153.564 23.1431 153.442 24.7372 153.489 26.1408C153.473 26.4664 153.488 26.718 153.534 26.8955C153.596 27.3246 154.004 27.5167 154.723 27.474C155.046 27.4547 155.296 27.4038 155.509 27.3551C156.044 27.2511 156.713 25.7688 157.288 25.1215L159.643 22.2767C159.666 22.672 159.604 23.4331 159.625 23.7924C159.647 25.991 160.325 27.0687 161.582 26.9939C162.193 26.9575 163.343 26.2761 164.961 24.9897C166.787 23.5468 167.887 22.0388 167.853 21.4638C167.845 21.3201 167.804 21.2503 167.697 21.2567C167.589 21.2632 167.413 21.3457 167.24 21.4642C166.167 22.2133 165.089 22.8904 164.009 23.5317C162.927 24.137 162.297 24.463 162.082 24.4758C161.866 24.4886 161.75 24.3513 161.731 24.0278C161.724 23.92 161.745 23.6663 161.827 23.2287C162.16 21.55 162.322 20.6387 162.316 20.5309C162.28 19.92 161.888 19.4023 161.142 18.9779C160.956 18.8808 160.736 18.8217 160.484 18.8367C159.945 18.8687 159.297 19.4843 158.927 19.9391L158.192 20.9204L157.662 21.7093L157.03 22.6124C156.667 23.175 156.264 23.6678 155.892 24.0866C156.064 22.742 156.157 21.871 156.171 21.5095C156.163 21.3657 156.232 20.7124 156.217 20.4609C156.176 19.165 155.624 18.3684 154.558 18.0351C153.97 17.8537 153.077 18.592 151.911 20.2121L149.577 23.4163C149.857 22.0653 150.378 20.5196 150.439 20.3357C150.583 19.7141 151.309 17.9759 151.273 17.365C151.294 17.1113 151.023 16.8028 150.496 16.4374C149.969 16.0721 149.566 15.9518 149.251 16.1148C148.678 16.1849 148.411 18.3646 148.295 18.8404C147.843 20.3458 147.274 22.2911 146.62 24.638C146.245 26.2111 146.019 27.2703 146.015 27.8115C146.06 28.5662 146.274 29.1305 146.691 29.4663C146.998 29.7727 147.294 29.8993 147.581 29.8822Z" fill="#C7A967"/>
<path d="M171.011 27.5871C172.88 27.476 175.179 26.1131 176.349 24.5649L176.482 24.3766C177.048 23.5856 177.259 22.8879 177.156 22.3531C177.113 22.2474 177.075 22.2136 177.041 22.2517C175.047 24.4981 172.881 25.6727 170.545 25.8117C169.826 25.8544 169.315 25.7406 169.008 25.4343C168.435 24.8913 168.307 23.9613 168.628 22.68C169.262 23.0389 169.994 23.2118 170.784 23.1648C171 23.152 171.144 23.1434 171.249 23.1011C172.987 22.601 174.191 21.0148 174.634 19.3656C174.781 18.8158 174.855 18.2344 174.821 17.6594C174.806 17.4079 174.793 17.1923 174.748 17.0507C174.604 16.4461 174.291 16.032 173.771 15.7744C173.399 15.5802 172.997 15.4959 172.602 15.5194C171.2 15.6028 169.776 16.5169 168.291 18.2281C166.842 19.9372 166.154 21.7091 166.265 23.5778C166.344 24.9075 166.575 25.7593 167.743 26.5914C168.76 27.3243 169.825 27.6576 171.011 27.5871ZM169.365 21.1215C170.125 19.3452 172.968 16.832 173.11 17.4005C173.231 17.6097 173.007 18.0919 172.405 18.885C171.839 19.676 171.4 20.171 171.089 20.4058C170.445 21.0933 169.847 21.3452 169.365 21.1215Z" fill="#C7A967"/>
<path d="M180.267 27.0366C181.417 26.9682 182.372 26.659 183.097 26.111C184.166 25.2901 184.885 24.6343 185.254 24.1795C185.856 23.3864 186.141 22.7203 186.105 22.1094C186.094 21.9297 186.052 21.824 185.946 21.8663C183.155 24.0519 180.987 25.1906 179.441 25.2826C178.974 25.3103 178.606 25.188 178.338 24.9154C178.105 24.6408 177.976 24.2878 177.952 23.8925C177.895 22.9222 178.359 21.6324 179.383 20.0568C180.143 18.8936 180.678 18.1766 180.988 17.9418C181.301 17.7428 181.51 17.6222 181.654 17.6137C181.798 17.6051 182.21 17.8691 182.648 17.9513C182.902 17.9722 183.047 17.9996 183.155 17.9932C183.622 17.9654 183.861 17.7348 183.835 17.3036C183.799 16.6927 183.439 16.101 182.794 15.5623C182.227 15.1272 181.637 14.9099 181.062 14.9441C180.344 14.9868 179.543 15.4672 178.624 16.3874C177.029 18.0691 175.638 20.7484 175.781 23.1561C175.853 24.378 176.311 25.3966 177.186 26.174C177.91 26.8162 178.937 27.1157 180.267 27.0366Z" fill="#C7A967"/>
<path d="M188.923 26.4497C190.002 26.3855 191.149 25.6682 192.328 24.2637C193.206 23.2738 193.62 22.3476 193.569 21.4851C193.53 20.8382 193.278 20.2401 192.779 19.7289C192.236 19.076 191.495 18.7594 190.593 18.741C189.946 18.7794 189.371 18.8136 188.866 18.8076C189.022 18.4016 189.239 17.8117 189.594 17.1054C189.949 16.3991 190.1 15.9212 190.126 15.7394C190.21 14.7246 189.336 13.9832 188.609 13.8822C188.209 13.8338 187.654 14.8045 186.941 16.7583C185.995 19.0505 185.576 21.095 185.68 22.8559C185.785 24.6168 186.502 25.7642 187.868 26.296C188.236 26.4184 188.6 26.4689 188.923 26.4497ZM188.503 24.2387C188.108 24.2622 187.871 23.9157 187.831 23.2329C187.779 22.3704 187.851 21.7531 188.047 21.4168C188.964 21.0738 189.818 20.8787 190.645 20.8296C191.184 20.7975 191.444 20.9263 191.461 21.2138C191.482 21.5731 191.085 22.1738 190.304 22.9776C189.522 23.7814 188.935 24.2131 188.503 24.2387Z" fill="#C7A967"/>
<path d="M201.292 18.5735C201.707 16.4571 202.397 14.108 203.287 11.4945C204.213 8.87891 204.986 6.70522 205.642 5.00726C206.298 3.3093 206.636 2.3155 206.617 1.99207C206.55 0.878039 205.326 0.301714 204.751 0.335911C204.499 0.350872 204.326 0.469369 204.267 0.689262C204.238 0.79921 203.487 3.33226 201.942 8.29269C200.398 13.2531 199.637 16.2196 199.591 17.2681C199.596 17.9531 199.879 18.4771 200.442 18.8404C200.892 19.1382 201.176 19.0492 201.292 18.5735ZM198.546 25.7692C199.013 25.7414 199.499 25.424 200.006 24.8529C200.513 24.2818 200.766 23.6897 200.734 23.1506C200.681 22.2522 200.222 21.8107 199.395 21.8598C198.138 21.9346 197.206 23.2523 197.266 24.2585C197.32 25.1569 197.827 25.8119 198.546 25.7692Z" fill="#C7A967"/>
</svg>
