<svg width="349" height="27" viewBox="0 0 349 27" fill="none" xmlns="http://www.w3.org/2000/svg">
<path d="M0.125008 0.716309H11.875C14.875 0.716309 17.25 1.21633 19.125 2.34133C20.875 3.34133 21.75 4.84133 21.75 6.71633C21.75 8.34133 21.125 9.59131 19.875 10.7163C18.625 11.8413 16.875 12.5913 14.875 12.8413C17.625 13.0913 19.75 13.7163 21.125 14.7163C22.625 15.7163 23.25 17.2163 23.25 19.2163C23.25 21.4663 22.375 23.0913 20.5 24.2163C18.625 25.3413 16.125 25.9663 12.625 25.9663H0V0.716309H0.125008ZM10.5 11.9663C12.875 11.9663 14.75 11.4663 16.125 10.5913C17.375 9.71634 18.125 8.46633 18.125 6.71633C18.125 5.21633 17.5 4.09132 16.25 3.34132C15 2.59132 13.125 2.21632 10.625 2.21632H3.87501V11.7163H10.5V11.9663ZM13 24.2163C15 24.2163 16.625 23.7163 17.75 22.8413C18.875 21.9663 19.5 20.5913 19.5 18.9663C19.5 17.2163 18.75 15.8413 17.125 14.9663C15.625 14.0913 13.25 13.5913 10.25 13.5913H3.87501V24.0913H13V24.2163Z" fill="#1D1F44"/>
<path d="M27.125 0.716309H48.5V2.46634H30.875V11.5913H46.5V13.3413H30.875V24.3413H48.5V26.0913H27.125V0.716309Z" fill="#1D1F44"/>
<path d="M73.0002 23.9663C73.5002 24.8413 73.8753 25.3413 74.3753 25.5913V25.8413H70.5002C70.1252 25.3413 69.7503 24.8413 69.3753 24.0913C69.0003 23.3413 68.6253 22.4663 68.2503 21.4663C67.6253 19.7163 66.8753 18.3413 66.2503 17.3413C65.5003 16.3413 64.7503 15.7163 63.7503 15.4663H62.7502H56.1252V25.9663H52.3752V0.716309H62.7502C66.2502 0.716309 68.8753 1.34131 70.7503 2.59131C72.6253 3.84131 73.6252 5.71631 73.6252 8.21631C73.6252 11.9663 71.5002 14.2163 67.3752 15.2163C68.2502 15.7163 69.1252 16.3413 69.7502 17.2163C70.3752 18.0913 71.0002 19.3413 71.6252 20.8413C72.0002 21.9663 72.5002 23.0913 73.0002 23.9663ZM62.6253 13.7163C67.3753 13.7163 69.7502 11.8413 69.7502 7.96633C69.7502 4.21633 67.3753 2.34133 62.6253 2.34133H55.8752V13.7163H62.6253Z" fill="#1D1F44"/>
<path d="M85.6253 13.4663L81.1252 17.9663V25.8413H77.3752V0.591309H81.1252V14.5913L95.2502 0.591309H98.5002L88.1253 10.9663L99.6252 25.8413H95.2502L85.6253 13.4663Z" fill="#1D1F44"/>
<path d="M108.5 24.7163C106.5 23.7163 104.875 22.2163 103.75 20.2163C102.625 18.2163 102.125 15.9663 102.125 13.2163C102.125 10.4663 102.625 8.21633 103.75 6.21632C104.875 4.34132 106.375 2.84132 108.5 1.84132C110.625 0.841324 113 0.341309 115.875 0.341309C118.75 0.341309 121.125 0.841324 123.125 1.84132C125.125 2.84132 126.75 4.34132 127.75 6.21632C128.875 8.09133 129.375 10.4663 129.375 13.2163C129.375 15.9663 128.875 18.3413 127.75 20.2163C126.625 22.2163 125.125 23.7163 123.125 24.7163C121.125 25.7163 118.625 26.2163 115.875 26.2163C113 26.2163 110.5 25.7163 108.5 24.7163ZM123.125 21.5913C124.875 19.5913 125.625 16.8413 125.625 13.2163C125.625 9.7163 124.75 6.96633 123.125 4.96632C121.375 3.09132 119 2.0913 115.875 2.0913C112.75 2.0913 110.25 3.09132 108.625 4.96632C106.875 6.84133 106.125 9.5913 106.125 13.2163C106.125 16.8413 107 19.5913 108.625 21.5913C110.375 23.5913 112.75 24.5913 115.875 24.5913C119 24.5913 121.375 23.5913 123.125 21.5913Z" fill="#1D1F44"/>
<path d="M129.75 0.716309H133.875L143.875 21.9663L154.75 0.716309H157.25L144.25 26.3413H142.25L129.75 0.716309Z" fill="#AD996C"/>
<path d="M161.5 0.716309H165.25V25.9663H161.5V0.716309Z" fill="#AD996C"/>
<path d="M175 24.0913C172.875 22.7163 171.75 20.5913 171.5 18.0913H174.75C174.875 20.3413 175.75 21.9663 177.125 22.9663C178.5 23.9663 180.625 24.5913 183.5 24.5913C186 24.5913 187.875 24.2163 189.125 23.3413C190.375 22.4663 191.125 21.2163 191.125 19.5913C191.125 18.5913 190.875 17.8413 190.375 17.2163C189.875 16.5913 189 15.9663 187.75 15.4663C186.5 14.9663 184.875 14.4663 182.625 14.0913C179.125 13.4663 176.5 12.5913 174.75 11.4663C173 10.3413 172.125 8.84129 172.125 6.96629C172.125 4.84129 173.125 3.21629 175.125 2.09129C177.125 0.966293 179.75 0.466309 183.125 0.466309C186.5 0.466309 189.125 1.0913 190.875 2.2163C192.75 3.4663 193.875 5.0913 194.125 7.2163H190.875C190.5 5.4663 189.625 4.21629 188.375 3.34129C187 2.59129 185.25 2.09129 182.875 2.09129C180.625 2.09129 178.875 2.46629 177.625 3.21629C176.375 3.96629 175.875 4.96629 175.875 6.34129C175.875 7.09129 176.125 7.84129 176.5 8.34129C177 8.8413 177.75 9.34131 178.875 9.84131C180 10.3413 181.625 10.7163 183.75 11.2163C186.375 11.7163 188.375 12.3413 190 12.9663C191.625 13.5913 192.75 14.3413 193.5 15.3413C194.25 16.3413 194.75 17.5913 194.75 19.0913C194.75 21.3413 193.75 23.0913 191.75 24.3413C189.75 25.5913 187 26.2163 183.5 26.2163C179.875 26.2163 177 25.5913 175 24.0913Z" fill="#AD996C"/>
<path d="M216.125 19.3413H201.625L198.375 25.9663H195.875L209 0.341309H211L223.375 25.9663H219.375L216.125 19.3413ZM215.375 17.5913L209.125 4.34132L202.5 17.5913H215.375Z" fill="#AD996C"/>
<path d="M253.875 9.96633V4.59131C254.625 4.59131 255.125 4.59131 255.375 4.59131C256 4.59131 256.375 4.71633 256.625 4.96633C256.875 5.21633 257 5.46632 257 5.96632C257 6.21632 256.875 6.59132 256.75 6.71632C256.625 6.96632 256.375 7.09132 256.125 7.21632C256.5 7.21632 256.75 7.4663 257 7.5913C257.25 7.8413 257.25 8.09132 257.25 8.46632C257.25 8.96632 257.125 9.34131 256.75 9.59131C256.375 9.84131 255.875 9.96633 255.375 9.96633C254.75 9.96633 254.25 9.96633 253.875 9.96633ZM255.375 5.21631C255.25 5.21631 255 5.21631 254.625 5.21631V6.9663H255.5C255.75 6.9663 256 6.84132 256.25 6.71632C256.5 6.59132 256.5 6.34132 256.5 6.09132C256.5 5.46632 256.125 5.21631 255.375 5.21631ZM255.375 7.5913H254.5V9.4663C254.75 9.4663 255 9.4663 255.375 9.4663C255.75 9.4663 256.125 9.34133 256.25 9.21633C256.5 9.09133 256.625 8.84132 256.625 8.46632C256.625 8.21632 256.5 7.96632 256.25 7.84132C256.125 7.59132 255.875 7.5913 255.375 7.5913Z" fill="#1D1F44"/>
<path d="M263.25 5.7163L260 9.96633H259.375V4.59131H260V8.8413L263.25 4.59131H263.875V9.96633H263.25V5.7163Z" fill="#1D1F44"/>
<path d="M267.625 10.0913C267.25 10.0913 266.875 9.96633 266.625 9.84133C266.25 9.71633 266.125 9.46633 265.875 9.21633L266.25 8.71634C266.375 8.96634 266.625 9.09133 266.875 9.21633C267.125 9.34133 267.375 9.34134 267.625 9.34134C268 9.34134 268.25 9.21632 268.5 9.09132C268.75 8.96632 268.875 8.71632 268.875 8.34132C268.875 8.09132 268.75 7.84132 268.625 7.71632C268.5 7.59132 268.125 7.46634 267.875 7.46634H267.25V6.84134H267.875C268.125 6.84134 268.375 6.71632 268.5 6.59132C268.625 6.46632 268.75 6.21632 268.75 5.96632C268.75 5.71632 268.625 5.46632 268.5 5.34132C268.375 5.21632 268.125 5.09131 267.75 5.09131C267.25 5.09131 266.875 5.34131 266.5 5.71631L266.125 5.34132C266.25 5.09132 266.5 4.84132 266.875 4.71632C267.125 4.59132 267.5 4.46631 267.875 4.46631C268.375 4.46631 268.75 4.59133 269 4.84133C269.25 5.09133 269.375 5.46632 269.375 5.84132C269.375 6.09132 269.25 6.34132 269.125 6.59132C269 6.84132 268.75 6.96632 268.5 7.09132C268.875 7.09132 269 7.34134 269.25 7.46634C269.5 7.59134 269.5 7.96632 269.5 8.34132C269.5 8.84132 269.375 9.21631 269 9.46631C268.5 9.96631 268.125 10.0913 267.625 10.0913Z" fill="#1D1F44"/>
<path d="M271.125 7.34132C271.125 6.59132 271.375 5.96632 271.875 5.34132C272.375 4.84132 273 4.59131 273.875 4.59131C274.625 4.59131 275.375 4.84132 275.875 5.34132C276.375 5.84132 276.625 6.46632 276.625 7.34132C276.625 8.09132 276.375 8.84133 275.875 9.34133C275.375 9.84133 274.75 10.0913 273.875 10.0913C273.125 10.0913 272.375 9.84133 271.875 9.34133C271.375 8.84133 271.125 8.09132 271.125 7.34132ZM271.75 7.34132C271.75 7.96632 272 8.4663 272.375 8.8413C272.75 9.2163 273.25 9.4663 273.875 9.4663C274.5 9.4663 275 9.2163 275.375 8.8413C275.75 8.4663 276 7.96632 276 7.34132C276 6.71632 275.75 6.21631 275.375 5.84131C275 5.46631 274.5 5.21631 273.875 5.21631C273.25 5.21631 272.75 5.46631 272.375 5.84131C272 6.21631 271.75 6.71632 271.75 7.34132Z" fill="#1D1F44"/>
<path d="M278.625 9.96633V4.59131C279.375 4.59131 279.875 4.59131 280.125 4.59131C280.75 4.59131 281.125 4.71633 281.375 4.96633C281.625 5.21633 281.75 5.46632 281.75 5.96632C281.75 6.21632 281.625 6.59132 281.5 6.71632C281.375 6.96632 281.125 7.09132 280.875 7.21632C281.25 7.21632 281.5 7.4663 281.75 7.5913C282 7.8413 282 8.09132 282 8.46632C282 8.96632 281.875 9.34131 281.5 9.59131C281.125 9.84131 280.625 9.96633 280.125 9.96633C279.375 9.96633 279 9.96633 278.625 9.96633ZM280 5.21631C279.875 5.21631 279.625 5.21631 279.25 5.21631V6.9663H280.125C280.375 6.9663 280.625 6.84132 280.875 6.71632C281.125 6.59132 281.125 6.34132 281.125 6.09132C281.125 5.46632 280.75 5.21631 280 5.21631ZM280.125 7.5913H279.25V9.4663C279.5 9.4663 279.75 9.4663 280.125 9.4663C280.5 9.4663 280.875 9.34133 281 9.21633C281.25 9.09133 281.375 8.84132 281.375 8.46632C281.375 8.21632 281.25 7.96632 281 7.84132C280.75 7.59132 280.5 7.5913 280.125 7.5913Z" fill="#1D1F44"/>
<path d="M283.625 7.34132C283.625 6.59132 283.875 5.96632 284.375 5.34132C284.875 4.84132 285.5 4.59131 286.375 4.59131C287.125 4.59131 287.875 4.84132 288.375 5.34132C288.875 5.84132 289.125 6.46632 289.125 7.34132C289.125 8.09132 288.875 8.84133 288.375 9.34133C287.875 9.84133 287.25 10.0913 286.375 10.0913C285.625 10.0913 284.875 9.84133 284.375 9.34133C283.875 8.84133 283.625 8.09132 283.625 7.34132ZM284.375 7.34132C284.375 7.96632 284.625 8.4663 285 8.8413C285.375 9.2163 285.875 9.4663 286.5 9.4663C287.125 9.4663 287.625 9.2163 288 8.8413C288.375 8.4663 288.625 7.96632 288.625 7.34132C288.625 6.71632 288.375 6.21631 288 5.84131C287.625 5.46631 287.125 5.21631 286.5 5.21631C285.875 5.21631 285.375 5.46631 285 5.84131C284.5 6.21631 284.375 6.71632 284.375 7.34132Z" fill="#1D1F44"/>
<path d="M294.25 9.96633H291.125V4.59131H294.125V5.21631H291.75V6.9663H293.875V7.5913H291.75V9.34133H294.25V9.96633Z" fill="#1D1F44"/>
<path d="M298.75 9.96633H298.125L300.5 4.59131H301L303.375 9.96633H302.625L301.875 8.34131H299.375L298.75 9.96633ZM301.625 7.71631L300.625 5.46632L299.625 7.71631H301.625Z" fill="#1D1F44"/>
<path d="M305.625 9.96633H305V4.59131H308V5.21631H305.625V9.96633Z" fill="#1D1F44"/>
<path d="M312.75 9.96633H309.625V4.59131H312.625V5.21631H310.25V6.9663H312.375V7.5913H310.25V9.34133H312.75V9.96633Z" fill="#1D1F44"/>
<path d="M319.125 9.96633H318.5V7.46633H315.5V9.96633H314.875V4.59131H315.5V6.9663H318.5V4.59131H319.125V9.96633Z" fill="#1D1F44"/>
<path d="M322.75 5.21631H320.875V4.59131H325.25V5.21631H323.375V9.96633H322.75V5.21631Z" fill="#1D1F44"/>
<path d="M330.375 8.96631L330.625 9.4663C330.5 9.5913 330.25 9.84133 329.875 9.96633C329.625 10.0913 329.25 10.0913 328.875 10.0913C328.125 10.0913 327.375 9.84133 326.875 9.34133C326.375 8.84133 326.125 8.21632 326.125 7.34132C326.125 6.59132 326.375 5.84132 326.875 5.34132C327.375 4.84132 328 4.59131 328.875 4.59131C329.5 4.59131 330.125 4.7163 330.5 5.0913L330.25 5.59133C329.875 5.34133 329.5 5.21631 328.875 5.21631C328.25 5.21631 327.75 5.46631 327.375 5.84131C327 6.21631 326.875 6.71632 326.875 7.34132C326.875 7.96632 327.125 8.4663 327.5 8.8413C327.875 9.2163 328.375 9.4663 329 9.4663C329.5 9.4663 330 9.34131 330.375 8.96631Z" fill="#1D1F44"/>
<path d="M333.625 5.21631H331.75V4.59131H336.125V5.21631H334.25V9.96633H333.625V5.21631Z" fill="#1D1F44"/>
<path d="M337.75 9.96633V4.59131C338.5 4.59131 339 4.59131 339.25 4.59131C339.875 4.59131 340.25 4.71633 340.5 4.96633C340.75 5.21633 340.875 5.46632 340.875 5.96632C340.875 6.21632 340.75 6.59132 340.625 6.71632C340.5 6.96632 340.25 7.09132 340 7.21632C340.375 7.21632 340.625 7.4663 340.875 7.5913C341.125 7.8413 341.125 8.09132 341.125 8.46632C341.125 8.96632 341 9.34131 340.625 9.59131C340.25 9.84131 339.75 9.96633 339.25 9.96633C338.625 9.96633 338.125 9.96633 337.75 9.96633ZM339.25 5.21631C339.125 5.21631 338.875 5.21631 338.5 5.21631V6.9663H339.375C339.625 6.9663 339.875 6.84132 340.125 6.71632C340.375 6.59132 340.375 6.34132 340.375 6.09132C340.375 5.46632 340 5.21631 339.25 5.21631ZM339.375 7.5913H338.5V9.4663C338.75 9.4663 339 9.4663 339.375 9.4663C339.75 9.4663 340.125 9.34133 340.25 9.21633C340.5 9.09133 340.625 8.84132 340.625 8.46632C340.625 8.21632 340.5 7.96632 340.25 7.84132C340 7.59132 339.75 7.5913 339.375 7.5913Z" fill="#1D1F44"/>
<path d="M342.875 7.34132C342.875 6.59132 343.125 5.96632 343.625 5.34132C344.125 4.84132 344.75 4.59131 345.625 4.59131C346.375 4.59131 347.125 4.84132 347.625 5.34132C348.125 5.84132 348.375 6.46632 348.375 7.34132C348.375 8.09132 348.125 8.84133 347.625 9.34133C347.125 9.84133 346.5 10.0913 345.625 10.0913C344.875 10.0913 344.125 9.84133 343.625 9.34133C343.125 8.84133 342.875 8.09132 342.875 7.34132ZM343.625 7.34132C343.625 7.96632 343.875 8.4663 344.25 8.8413C344.625 9.2163 345.125 9.4663 345.75 9.4663C346.375 9.4663 346.875 9.2163 347.25 8.8413C347.625 8.4663 347.875 7.96632 347.875 7.34132C347.875 6.71632 347.625 6.21631 347.25 5.84131C346.875 5.46631 346.375 5.21631 345.75 5.21631C345.125 5.21631 344.625 5.46631 344.25 5.84131C343.75 6.21631 343.625 6.71632 343.625 7.34132Z" fill="#1D1F44"/>
<path d="M257 20.8413H253.875V15.4663H256.875V16.0913H254.5V17.8413H256.625V18.4663H254.5V20.2163H257V20.8413Z" fill="#1D1F44"/>
<path d="M263.125 20.8413H262.375V16.0913H260.375L260.25 17.0913C260.25 17.7163 260.125 18.3413 260 18.8413C259.875 19.3413 259.75 19.7163 259.625 19.9663C259.5 20.2163 259.375 20.4663 259.25 20.5913C259.125 20.7163 259 20.8413 258.75 20.8413C258.625 20.8413 258.5 20.8413 258.25 20.8413V20.2163C258.375 20.2163 258.5 20.2163 258.5 20.2163C258.5 20.2163 258.625 20.0913 258.75 19.9663C258.875 19.8413 259 19.5913 259 19.3413C259.25 18.7163 259.375 17.8413 259.5 16.4663L259.625 15.3413H262.875V20.8413H263.125Z" fill="#1D1F44"/>
<path d="M268.625 20.8413H265.5V15.4663H268.5V16.0913H266.125V17.8413H268.25V18.4663H266.125V20.2163H268.625V20.8413Z" fill="#1D1F44"/>
<path d="M274.875 20.8413H274.25V18.3413H271.25V20.8413H270.625V15.4663H271.25V17.8413H274.25V15.4663H274.875V20.8413Z" fill="#1D1F44"/>
<path d="M277.375 15.4663H278V17.4663C278.375 17.4663 278.625 17.4663 278.75 17.4663C279.375 17.4663 279.875 17.5913 280.25 17.8413C280.625 18.0913 280.75 18.5913 280.75 19.0913C280.75 19.7163 280.5 20.0913 280.125 20.3413C279.75 20.5913 279.25 20.8413 278.5 20.8413C278.25 20.8413 278 20.8413 277.875 20.8413C277.75 20.8413 277.5 20.8413 277.375 20.8413V15.4663ZM278.625 18.0913C278.5 18.0913 278.25 18.0913 278 18.0913V20.2163C278.375 20.2163 278.625 20.2163 278.625 20.2163C279.5 20.2163 280 19.8413 280 19.0913C280 18.7163 279.875 18.4663 279.625 18.3413C279.375 18.2163 279.125 18.0913 278.625 18.0913ZM282.25 20.8413H281.625V15.4663H282.25V20.8413Z" fill="#1D1F44"/>
<path d="M287.125 20.8413V15.4663H290.125V16.0913H287.75V17.5913C288 17.5913 288.25 17.5913 288.625 17.5913C289.25 17.5913 289.625 17.7163 290 17.9663C290.375 18.2163 290.5 18.5913 290.5 19.0913C290.5 19.5913 290.375 20.0913 290 20.3413C289.625 20.5913 289.125 20.8413 288.5 20.8413C288.375 20.8413 288.125 20.8413 287.75 20.8413C287.625 20.8413 287.625 20.8413 287.5 20.8413C287.375 20.9663 287.25 20.9663 287.125 20.8413ZM288.5 18.2163C288.25 18.2163 288 18.2163 287.75 18.2163V20.2163C288 20.2163 288.25 20.2163 288.5 20.2163C288.875 20.2163 289.25 20.0913 289.5 19.9663C289.75 19.8413 289.875 19.4663 289.875 19.2163C289.875 18.8413 289.75 18.5913 289.5 18.4663C289.25 18.3413 289 18.2163 288.5 18.2163Z" fill="#1D1F44"/>
<path d="M295.75 20.8413H292.625V15.4663H295.625V16.0913H293.25V17.8413H295.375V18.4663H293.25V20.2163H295.75V20.8413Z" fill="#1D1F44"/>
<path d="M298.375 18.8413V20.9663H297.75V15.5913C298 15.5913 298.25 15.5913 298.375 15.5913C298.625 15.5913 298.875 15.5913 299.125 15.5913C299.875 15.5913 300.375 15.7163 300.625 16.0913C300.875 16.4663 301.125 16.8413 301.125 17.3413C301.125 17.8413 301 18.2163 300.625 18.5913C300.25 18.9663 299.875 19.0913 299.25 19.0913C298.875 18.8413 298.625 18.8413 298.375 18.8413ZM299.25 16.0913C299.125 16.0913 298.875 16.0913 298.375 16.0913V18.2163C298.75 18.2163 299 18.2163 299.125 18.2163C299.5 18.2163 299.875 18.0913 300 17.9663C300.125 17.8413 300.375 17.4663 300.375 17.2163C300.375 16.8413 300.25 16.5913 300.125 16.4663C300 16.2163 299.625 16.0913 299.25 16.0913Z" fill="#1D1F44"/>
<path d="M303.75 20.8413H303.125V15.4663H303.75V20.8413ZM306.25 15.4663H307L304.625 17.9663L307.125 20.8413H306.25L303.75 18.0913L306.25 15.4663Z" fill="#1D1F44"/>
<path d="M308.25 18.2163C308.25 17.4663 308.5 16.8413 309 16.2163C309.5 15.7163 310.125 15.4663 311 15.4663C311.75 15.4663 312.5 15.7163 313 16.2163C313.5 16.7163 313.75 17.3413 313.75 18.2163C313.75 18.9663 313.5 19.7163 313 20.2163C312.5 20.7163 311.875 20.9663 311 20.9663C310.25 20.9663 309.5 20.7163 309 20.2163C308.5 19.7163 308.25 18.9663 308.25 18.2163ZM308.875 18.2163C308.875 18.8413 309.125 19.3413 309.5 19.7163C309.875 20.0913 310.375 20.3413 311 20.3413C311.625 20.3413 312.125 20.0913 312.5 19.7163C312.875 19.3413 313.125 18.8413 313.125 18.2163C313.125 17.5913 312.875 17.0913 312.5 16.7163C312.125 16.3413 311.625 16.0913 311 16.0913C310.375 16.0913 309.875 16.3413 309.5 16.7163C309.125 17.0913 308.875 17.5913 308.875 18.2163Z" fill="#1D1F44"/>
<path d="M315.625 20.8413V15.4663C316.375 15.4663 316.875 15.4663 317.125 15.4663C317.75 15.4663 318.125 15.5913 318.375 15.8413C318.625 16.0913 318.75 16.3413 318.75 16.8413C318.75 17.0913 318.625 17.4663 318.5 17.5913C318.375 17.8413 318.125 17.9663 317.875 18.0913C318.25 18.0913 318.5 18.3413 318.75 18.4663C319 18.7163 319 18.9663 319 19.3413C319 19.8413 318.875 20.2163 318.5 20.4663C318.125 20.7163 317.625 20.8413 317.125 20.8413C316.5 20.9663 316 20.9663 315.625 20.8413ZM317.125 16.0913C317 16.0913 316.75 16.0913 316.375 16.0913V17.8413H317.25C317.5 17.8413 317.75 17.7163 318 17.5913C318.25 17.4663 318.25 17.2163 318.25 16.9663C318.25 16.3413 317.875 16.0913 317.125 16.0913ZM317.125 18.4663H316.25V20.3413C316.5 20.3413 316.75 20.3413 317.125 20.3413C317.5 20.3413 317.875 20.2163 318 20.0913C318.25 19.9663 318.375 19.7163 318.375 19.3413C318.375 19.0913 318.25 18.8413 318 18.7163C317.875 18.4663 317.5 18.4663 317.125 18.4663Z" fill="#1D1F44"/>
<path d="M324.875 19.8413L325.125 20.3413C325 20.4663 324.75 20.7163 324.375 20.8413C324.125 20.9663 323.75 20.9663 323.375 20.9663C322.625 20.9663 321.875 20.7163 321.375 20.2163C320.875 19.7163 320.625 19.0913 320.625 18.2163C320.625 17.4663 320.875 16.7163 321.375 16.2163C321.875 15.7163 322.5 15.4663 323.375 15.4663C324 15.4663 324.625 15.5913 325 15.9663L324.75 16.4663C324.375 16.2163 324 16.0913 323.375 16.0913C322.75 16.0913 322.25 16.3413 321.875 16.7163C321.5 17.0913 321.375 17.5913 321.375 18.2163C321.375 18.8413 321.625 19.3413 322 19.7163C322.375 20.0913 322.875 20.3413 323.5 20.3413C324 20.3413 324.5 20.2163 324.875 19.8413Z" fill="#1D1F44"/>
<path d="M327.625 20.8413H327V15.4663H327.625V20.8413ZM330.125 15.4663H330.875L328.5 17.9663L331 20.8413H330.125L327.625 18.0913L330.125 15.4663Z" fill="#1D1F44"/>
<path d="M332 18.2163C332 17.4663 332.25 16.8413 332.75 16.2163C333.25 15.7163 333.875 15.4663 334.75 15.4663C335.5 15.4663 336.25 15.7163 336.75 16.2163C337.25 16.7163 337.5 17.3413 337.5 18.2163C337.5 18.9663 337.25 19.7163 336.75 20.2163C336.25 20.7163 335.625 20.9663 334.75 20.9663C334 20.9663 333.25 20.7163 332.75 20.2163C332.25 19.7163 332 18.9663 332 18.2163ZM332.75 18.2163C332.75 18.8413 333 19.3413 333.375 19.7163C333.75 20.0913 334.25 20.3413 334.875 20.3413C335.5 20.3413 336 20.0913 336.375 19.7163C336.75 19.3413 337 18.8413 337 18.2163C337 17.5913 336.75 17.0913 336.375 16.7163C336 16.3413 335.5 16.0913 334.875 16.0913C334.25 16.0913 333.75 16.3413 333.375 16.7163C332.875 17.0913 332.75 17.5913 332.75 18.2163Z" fill="#1D1F44"/>
<path d="M343.375 16.5913L340.125 20.8413H339.5V15.4663H340.125V19.7163L343.375 15.4663H344V20.8413H343.375V16.5913ZM340.375 14.3413H341C341.125 14.7163 341.375 14.8413 341.875 14.8413C342.375 14.8413 342.625 14.7163 342.625 14.3413H343.25C343.25 14.5913 343.125 14.8413 342.75 15.0913C342.5 15.2163 342.125 15.3413 341.75 15.3413C341.375 15.3413 341 15.2163 340.75 15.0913C340.5 14.8413 340.375 14.5913 340.375 14.3413Z" fill="#1D1F44"/>
<path d="M240.25 0.341309H239V25.9663H240.25V0.341309Z" fill="#ABAFBA"/>
</svg>
