<svg width="58" height="61" viewBox="0 0 58 61" fill="none" xmlns="http://www.w3.org/2000/svg">
<path d="M53.8106 38.6345C55.7491 38.6345 57.0462 37.3404 57.0462 35.4204C57.0462 32.1636 57.0462 28.9068 57.0462 25.65C57.0462 25.3798 57.032 25.0954 56.975 24.8251C56.6614 23.3745 55.4641 22.4074 53.9817 22.3932C52.9697 22.379 51.9719 22.3932 50.9741 22.3932C50.9741 21.6679 50.9741 21.0421 50.9741 20.3595C52.0004 20.3595 52.9982 20.3737 53.9817 20.3595C55.6921 20.331 57.0177 19.0369 57.032 17.3445C57.0462 13.9454 57.0462 10.5322 57.032 7.13319C57.032 6.10922 56.6186 5.24169 55.7491 4.71548C55.1932 4.38838 54.4948 4.20349 53.8534 4.14661C52.8984 4.04705 51.9291 4.11816 50.9599 4.11816C50.9599 3.93328 50.9599 3.84795 50.9599 3.76262C50.9884 1.28802 49.7626 0.0649414 47.2824 0.0649414C40.0415 0.0649414 32.7863 0.0649414 25.5454 0.0649414C20.2003 0.0649414 14.8694 0.0649414 9.52421 0.0649414C7.41465 0.0649414 6.17458 1.31646 6.17458 3.42129C6.17458 4.50215 6.17458 5.58301 6.17458 6.64965C6.17458 6.80609 6.14606 6.97675 6.13181 7.16163C5.09128 7.16163 4.09353 7.10475 3.11002 7.19008C2.53987 7.23274 1.92696 7.38918 1.44233 7.68784C0.187998 8.48426 -0.296634 10.4327 0.245009 12.0966C0.715383 13.5472 1.77016 14.2583 3.43785 14.2725C4.33584 14.2725 5.24808 14.2725 6.16032 14.2725C6.16032 16.3347 6.16032 18.3115 6.16032 20.3595C5.07703 20.3595 4.05077 20.3026 3.03875 20.3879C2.49711 20.4306 1.89845 20.6013 1.44233 20.8857C0.202251 21.6821 -0.282376 23.5878 0.230759 25.2376C0.701133 26.7309 1.74166 27.4704 3.43785 27.4704C4.33584 27.4704 5.24808 27.4704 6.13181 27.4704C6.13181 29.5468 6.13181 31.5378 6.13181 33.5573C5.09128 33.5573 4.09352 33.5005 3.09576 33.5858C2.52561 33.6285 1.9127 33.7849 1.42807 34.0836C0.173739 34.88 -0.310884 36.8284 0.230759 38.4923C0.715386 39.9572 1.74165 40.6683 3.42359 40.6683C4.32158 40.6683 5.23382 40.6683 6.11756 40.6683C6.11756 42.7446 6.11756 44.7499 6.11756 46.7552C5.07703 46.7552 4.06502 46.6983 3.08151 46.7836C2.51136 46.8263 1.89845 46.9827 1.41382 47.2814C0.173742 48.0636 -0.310886 49.9836 0.20225 51.6333C0.672623 53.1266 1.71315 53.8519 3.40934 53.8661C4.30733 53.8661 5.21957 53.8661 6.14607 53.8661C6.14607 55.2314 6.14607 56.4972 6.14607 57.7629C6.16032 59.6828 7.44316 60.977 9.38167 60.977C22.153 60.977 34.9244 60.977 47.71 60.977C49.2779 60.977 50.3755 60.1522 50.7603 58.6304C50.9028 58.09 50.9029 57.5211 50.9884 56.9238C51.9149 56.9238 52.8414 56.9238 53.7679 56.9238C55.7064 56.9096 56.9892 55.6438 56.9892 53.6955C56.9892 50.4387 56.9892 47.1819 56.9892 43.9251C56.9892 41.9482 55.7064 40.6825 53.7251 40.6825C52.7986 40.6825 51.8721 40.6825 50.9314 40.6825C50.9314 39.9856 50.9314 39.3314 50.9314 38.663C51.9576 38.6345 52.8841 38.6345 53.8106 38.6345ZM3.42359 12.2388C2.52561 12.2388 2.06949 11.7126 2.06949 10.7171C2.06949 9.70734 2.52561 9.19535 3.42359 9.19535C6.64494 9.19535 9.86629 9.19535 13.0734 9.19535C13.9571 9.19535 14.399 9.72156 14.3847 10.7455C14.3705 11.7411 13.9571 12.2246 13.0734 12.2388C11.4485 12.2388 9.80928 12.2388 8.18435 12.2388C6.60218 12.2388 5.00576 12.2388 3.42359 12.2388ZM3.49486 25.4367C2.52561 25.4367 2.05524 24.9531 2.05524 23.9292C2.05524 22.9052 2.51136 22.3932 3.46636 22.3932C5.07704 22.3932 6.68771 22.3932 8.29838 22.3932C9.88055 22.3932 11.477 22.3932 13.0591 22.3932C13.9571 22.3932 14.399 22.9052 14.3847 23.9292C14.3705 24.9531 13.9429 25.4367 13.0306 25.4367C9.85204 25.4367 6.67345 25.4367 3.49486 25.4367ZM3.39509 38.6203C2.51136 38.6203 2.04098 38.0799 2.05524 37.0844C2.06949 36.1173 2.51136 35.5768 3.36658 35.5768C6.63069 35.5768 9.89481 35.5911 13.1589 35.5768C13.8003 35.5768 14.1709 35.8897 14.2992 36.4586C14.3847 36.8426 14.3847 37.255 14.3135 37.6532C14.1994 38.3359 13.8146 38.6203 13.1161 38.6203C11.5055 38.6203 9.8948 38.6203 8.28413 38.6203C6.6592 38.6345 5.03428 38.6345 3.39509 38.6203ZM3.43785 51.8182C2.52561 51.8182 2.06949 51.3062 2.05524 50.3107C2.04098 49.2867 2.51136 48.7747 3.46636 48.7747C5.07704 48.7747 6.68771 48.7747 8.29838 48.7747C9.86629 48.7747 11.4342 48.7747 13.0021 48.7747C13.9571 48.7747 14.399 49.2582 14.399 50.3107C14.399 51.3346 13.9571 51.8182 13.0449 51.8182C9.83778 51.8182 6.63069 51.8182 3.43785 51.8182ZM48.9073 57.5211C48.9073 58.602 48.5795 58.9291 47.5105 58.9291C34.9244 58.9291 22.3383 58.9291 9.76651 58.9291C8.49793 58.9291 8.22711 58.6589 8.22711 57.4216C8.22711 56.2554 8.22711 55.1034 8.22711 53.8519C9.76652 53.8519 11.2347 53.8519 12.6885 53.8519C15.5678 53.8519 17.1215 51.6333 16.1807 48.8743C15.6961 47.4805 14.6983 46.7552 13.2159 46.741C11.591 46.741 9.95182 46.741 8.28413 46.741C8.28413 44.7215 8.28413 42.7304 8.28413 40.654C8.61197 40.654 8.9398 40.654 9.26763 40.654C10.5647 40.654 11.8476 40.654 13.1447 40.654C14.7981 40.654 15.8529 39.8292 16.2662 38.2363C16.5085 37.2835 16.4658 36.3448 16.0952 35.4346C15.5963 34.2115 14.6128 33.5573 13.2872 33.5431C11.6338 33.5431 9.98033 33.5431 8.28413 33.5431C8.28413 31.5236 8.28413 29.5326 8.28413 27.4562C9.42443 27.4562 10.5647 27.4562 11.6908 27.4562C12.1611 27.4562 12.6173 27.4562 13.0876 27.4562C14.8266 27.4562 15.9099 26.6171 16.2947 24.8963C16.5085 23.9434 16.4515 23.0047 16.0382 22.1088C15.5108 20.9568 14.6128 20.3595 13.3442 20.3453C11.6765 20.3453 10.0088 20.3453 8.28413 20.3453C8.28413 18.3115 8.28413 16.3205 8.28413 14.2583C9.02532 14.2583 9.76652 14.2583 10.4935 14.2583C11.42 14.2583 12.3607 14.2725 13.2872 14.2441C13.615 14.2441 13.9714 14.2014 14.285 14.1019C15.7816 13.6468 16.6511 11.8691 16.3518 9.92067C16.0952 8.24249 14.9264 7.16163 13.33 7.14741C11.6765 7.13319 10.0231 7.13319 8.36965 7.13319C8.3554 7.13319 8.32689 7.11897 8.25562 7.0763C8.25562 5.69678 8.21286 4.28882 8.28413 2.88086C8.31264 2.31199 8.81152 2.056 9.39592 2.056C10.579 2.056 11.762 2.056 12.9594 2.056C24.4621 2.056 35.9649 2.056 47.4677 2.056C48.6365 2.056 48.9216 2.35466 48.9216 3.52085C48.9073 21.5399 48.9073 39.5305 48.9073 57.5211ZM50.9599 6.18033C52.0431 6.18033 53.1122 6.13766 54.1812 6.19455C54.7371 6.22299 55.0079 6.70653 55.0079 7.43185C55.0079 10.3189 55.0079 13.2201 55.0079 16.1072C55.0079 16.4912 55.0222 16.8609 55.0079 17.2449C54.9794 17.9133 54.6088 18.3115 53.9389 18.3258C53.0979 18.34 52.2427 18.3258 51.4017 18.3258C51.2734 18.3258 51.1594 18.3258 50.9599 18.3258C50.9599 14.2441 50.9599 10.2478 50.9599 6.18033ZM54.1385 42.7162C54.6944 42.7446 55.0079 43.1571 55.0079 43.726C55.0222 47.0823 55.0222 50.4529 55.0079 53.8092C55.0079 54.4777 54.5946 54.8474 53.9104 54.8616C52.9554 54.8759 52.0004 54.8616 50.9741 54.8616C50.9741 50.78 50.9741 46.7836 50.9741 42.702C52.0431 42.702 53.0979 42.6593 54.1385 42.7162ZM50.9741 36.6008C50.9741 32.5192 50.9741 28.5228 50.9741 24.4412C52.0574 24.4412 53.1264 24.3985 54.1955 24.4554C54.7514 24.4838 55.0222 24.9674 55.0222 25.6785C55.0222 28.4233 55.0222 31.1681 55.0222 33.9129C55.0222 34.4391 55.0364 34.9653 55.0222 35.4915C55.0079 36.1742 54.6231 36.5724 53.9674 36.5866C52.9839 36.615 52.0146 36.6008 50.9741 36.6008Z" fill="#C7A967"/>
<path d="M37.5754 29.305C37.1621 29.177 36.7202 29.1059 36.2213 28.9921C38.7442 25.3656 37.775 21.0421 35.3376 18.9515C32.8147 16.804 28.5813 16.7614 25.9729 18.852C23.735 20.6581 22.2099 24.9674 24.9323 28.9637C24.9038 28.9921 24.8753 29.0348 24.8326 29.049C24.7328 29.0775 24.633 29.0917 24.519 29.1059C22.7658 29.3903 21.2834 30.201 20.1431 31.5663C18.2046 33.8987 17.9765 36.5866 18.6892 39.4025C18.9743 40.526 19.7297 41.3936 20.8985 41.6638C23.0651 42.1473 25.2317 42.6593 27.4268 42.9153C31.6316 43.3988 35.7937 42.9153 39.8703 41.8202C41.2244 41.4505 42.1794 40.654 42.4787 39.3314C42.721 38.279 42.778 37.1555 42.7495 36.0746C42.721 32.9031 40.6115 30.2152 37.5754 29.305ZM30.6481 19.3497C33.6271 19.364 35.6939 21.4688 35.6512 24.4696C35.6226 27.4562 33.5701 29.4899 30.6053 29.4899C27.6121 29.4757 25.5453 27.3993 25.5595 24.3985C25.5738 21.3977 27.6548 19.3355 30.6481 19.3497ZM40.6685 38.4496C40.6115 39.1892 40.1411 39.6301 39.3856 39.8292C36.5064 40.5971 33.5844 40.9954 31.0044 41.0096C27.6406 40.9954 24.747 40.5971 21.882 39.8434C21.0838 39.6301 20.5707 39.1607 20.5422 38.3643C20.4852 37.1839 20.4139 35.9751 20.642 34.8373C20.9698 33.1734 22.1956 32.1352 23.7065 31.5378C24.633 31.1681 25.645 30.9832 26.6428 30.7699C26.9421 30.713 27.3127 30.7983 27.6263 30.9121C29.6361 31.6801 31.6316 31.6801 33.6414 30.8979C33.8124 30.8268 34.012 30.7272 34.183 30.7414C36.2926 30.8836 38.2739 31.4098 39.685 33.088C40.1839 33.6711 40.5687 34.4675 40.6827 35.2213C40.811 36.2879 40.7398 37.383 40.6685 38.4496Z" fill="#C7A967"/>
</svg>
