<svg width="49" height="62" viewBox="0 0 49 62" fill="none" xmlns="http://www.w3.org/2000/svg">
<path d="M45.8258 0C31.8286 0 17.8172 0 3.80575 0C3.62046 0.0711091 3.4209 0.142218 3.2356 0.199106C1.36836 0.739535 0.0997763 2.31816 0.0142538 4.26655C0 4.47988 0 4.67898 0 4.89231C0 22.6554 0 40.4184 0 58.1673C0 58.6366 0.0142538 59.1201 0.128284 59.561C0.541643 61.0685 1.85299 61.9503 3.57769 61.9503C7.86808 61.9503 12.1442 61.9503 16.4346 61.9503C25.1294 61.9503 33.8242 61.9076 42.5332 61.9787C44.8851 61.9929 46.7096 60.5423 46.4815 58.0535C46.4388 57.5557 46.5955 57.2713 47.0659 57.0153C48.0922 56.4464 48.6338 55.522 48.6908 54.3274C48.7051 54.0145 48.7051 53.7016 48.7051 53.3887C48.7051 36.991 48.7051 20.579 48.7051 4.18122C48.7051 1.66395 48.1492 0.85331 45.8258 0ZM44.2722 58.6508C44.2437 59.2908 43.8731 59.6463 43.2459 59.7317C43.0178 59.7601 42.7755 59.7459 42.5475 59.7459C29.6763 59.7459 16.8052 59.7459 3.91978 59.7459C3.63471 59.7459 3.33538 59.7459 3.06456 59.689C2.50866 59.561 2.22359 59.177 2.23784 58.6081C2.23784 58.0251 2.56568 57.6837 3.12157 57.5842C3.34963 57.5415 3.59195 57.5415 3.82001 57.5415C17.0618 57.5415 30.3035 57.5415 43.5452 57.5415C43.759 57.5415 43.9586 57.5415 44.2864 57.5415C44.2722 57.9824 44.2864 58.3095 44.2722 58.6508ZM46.4815 26.4526C46.4815 35.4835 46.4815 44.5143 46.4815 53.531C46.4815 55.0811 46.2535 55.3087 44.7283 55.3087C31.3013 55.3087 17.86 55.3087 4.43292 55.3087C3.73449 55.3087 3.0218 55.3656 2.20933 55.4082C2.20933 55.138 2.20933 54.882 2.20933 54.626C2.20933 39.6789 2.20933 24.7318 2.20933 9.77039C2.20933 9.28685 2.20933 8.94553 2.77948 8.66109C3.64896 8.23444 3.57769 5.13408 2.75098 4.60787C2.60844 4.50832 2.42314 4.46565 2.2806 4.39454C2.30911 3.34213 2.90777 2.54571 3.87702 2.33238C4.23337 2.24705 4.60396 2.23283 4.96031 2.23283C18.2591 2.23283 31.5578 2.23283 44.8566 2.23283C46.1964 2.23283 46.5528 2.60259 46.4673 3.911C46.453 4.12433 46.2249 4.33766 46.0824 4.53676C46.0539 4.57943 45.9826 4.57943 45.9399 4.60787C45.0846 5.1483 45.0704 8.26288 45.9826 8.70376C46.453 8.93131 46.4815 9.20152 46.4815 9.61395C46.4815 15.2316 46.4815 20.8492 46.4815 26.4526Z" fill="#C7A967"/>
<path d="M24.3309 13.3115C17.033 13.3115 11.0607 19.2705 11.0464 26.5521C11.0322 33.8763 17.0187 39.8495 24.3594 39.8353C31.6716 39.821 37.6297 33.8905 37.6439 26.609C37.6582 19.2847 31.6716 13.2973 24.3309 13.3115ZM18.9287 16.995C17.4036 19.7114 16.8049 22.4846 16.6196 25.4143C15.5363 25.4143 14.4816 25.4143 13.4268 25.4143C13.213 22.7122 15.8357 18.6163 18.9287 16.995ZM13.3983 27.7183C14.4958 27.7183 15.5221 27.7183 16.6196 27.7183C16.8192 30.6337 17.4036 33.4212 18.8717 36.0522C15.7074 34.6016 13.4838 30.6195 13.3983 27.7183ZM23.1764 37.3038C20.6962 36.3225 18.8717 31.3733 18.9287 27.7325C20.3399 27.7325 21.7652 27.7325 23.1764 27.7325C23.1764 30.9466 23.1764 34.1181 23.1764 37.3038ZM23.1906 25.4428C21.7367 25.4428 20.3399 25.4428 18.943 25.4428C18.7719 22.1006 20.6677 16.7248 23.1906 15.8573C23.1906 19.0287 23.1906 22.186 23.1906 25.4428ZM25.4997 37.2753C25.4997 34.1039 25.4997 30.9466 25.4997 27.7467C26.9393 27.7467 28.3647 27.7467 29.7758 27.7467C29.8471 31.7004 27.7376 36.6638 25.4997 37.2753ZM25.4997 25.4143C25.4997 22.2429 25.4997 19.0714 25.4997 15.6581C28.9064 18.1612 29.4195 21.7166 29.8899 25.4143C28.379 25.4143 26.9679 25.4143 25.4997 25.4143ZM29.9326 36.0238C31.2867 33.4212 31.8997 30.6622 32.0707 27.7325C33.1682 27.7325 34.223 27.7325 35.3633 27.7325C34.8787 31.4017 33.0685 34.1465 29.9326 36.0238ZM32.085 25.4428C31.8854 22.5131 31.301 19.7256 29.8329 17.1088C32.5268 18.147 35.3206 22.442 35.2921 25.4428C34.2088 25.4428 33.1682 25.4428 32.085 25.4428Z" fill="#C7A967"/>
<path d="M33.0403 48.6812C32.855 48.6812 32.6697 48.6812 32.4987 48.6812C27.1678 48.6812 21.8369 48.6812 16.5059 48.6812C16.1211 48.6812 15.722 48.6527 15.3371 48.7096C14.7527 48.8092 14.4106 49.1932 14.4106 49.7905C14.4249 50.3878 14.7527 50.7576 15.3514 50.8571C15.5795 50.8998 15.8218 50.8714 16.0498 50.8714C18.7865 50.8714 21.5375 50.8714 24.2742 50.8714C25.6284 50.8714 26.9967 50.8714 28.3508 50.8714C29.9187 50.8714 31.4866 50.8856 33.0546 50.8714C33.8385 50.8714 34.2946 50.4305 34.2946 49.762C34.2946 49.1221 33.8243 48.7096 33.0403 48.6812Z" fill="#C7A967"/>
<path d="M19.8982 46.4771C22.0647 46.4771 24.2313 46.4913 26.3979 46.4771C27.1818 46.4771 27.6522 46.0362 27.6522 45.382C27.6522 44.7136 27.2103 44.2869 26.4121 44.2869C22.079 44.2727 17.7316 44.2727 13.3984 44.3012C13.0421 44.3012 12.5717 44.5429 12.3579 44.8274C11.8163 45.5669 12.4292 46.4629 13.4697 46.4771C15.6078 46.4913 17.7458 46.4771 19.8982 46.4771Z" fill="#C7A967"/>
<path d="M35.3919 44.2868C34.6649 44.2726 33.938 44.2868 33.211 44.2868C32.5126 44.2868 31.7999 44.2726 31.1015 44.2868C30.3888 44.3011 29.9042 44.7277 29.8899 45.3393C29.8614 45.9508 30.3318 46.4628 31.0302 46.477C32.4841 46.5054 33.938 46.5054 35.3919 46.477C36.076 46.4628 36.5749 45.9366 36.5179 45.3393C36.4466 44.685 36.076 44.2868 35.3919 44.2868Z" fill="#C7A967"/>
<path d="M8.82313 5.46116C8.76612 4.86385 8.39552 4.5083 7.79686 4.49408C7.15544 4.46563 6.71357 4.80696 6.67081 5.43272C6.59954 6.25758 6.6138 7.09667 6.67081 7.92154C6.71357 8.50463 7.14119 8.86018 7.72559 8.8744C8.3385 8.8744 8.75186 8.51885 8.82313 7.87887C8.86589 7.49488 8.83738 7.09667 8.83738 6.71268C8.82313 6.30025 8.86589 5.87359 8.82313 5.46116Z" fill="#C7A967"/>
<path d="M40.9509 4.49403C40.2668 4.50826 39.8962 4.89225 39.8677 5.57489C39.8534 5.93044 39.8677 6.30021 39.8677 6.66997C39.8677 7.05396 39.8534 7.45217 39.8677 7.83616C39.9104 8.47615 40.3095 8.86014 40.9224 8.87436C41.5496 8.9028 41.9915 8.53303 42.0342 7.90727C42.0912 7.11085 42.0912 6.30021 42.0342 5.48956C42.0057 4.8638 41.6066 4.47981 40.9509 4.49403Z" fill="#C7A967"/>
<path d="M24.3598 8.8744C24.9727 8.8744 25.386 8.50463 25.443 7.86465C25.4858 7.48066 25.443 7.08245 25.443 6.69846C25.443 6.28603 25.4858 5.85937 25.4288 5.44694C25.3433 4.82118 24.9442 4.47986 24.3027 4.49408C23.7041 4.5083 23.305 4.86385 23.2622 5.46116C23.2052 6.25759 23.2195 7.06823 23.2622 7.87887C23.305 8.50463 23.7326 8.8744 24.3598 8.8744Z" fill="#C7A967"/>
<path d="M34.3374 6.6132C34.3374 7.02563 34.3089 7.45228 34.3374 7.86472C34.3801 8.47626 34.765 8.81758 35.3351 8.86025C35.9195 8.90291 36.4042 8.59003 36.4612 8.00694C36.5467 7.1394 36.5467 6.24343 36.4754 5.3759C36.4327 4.7928 35.9766 4.4657 35.3779 4.49414C34.7365 4.52259 34.3801 4.89236 34.3374 5.53234C34.3089 5.88788 34.3374 6.25765 34.3374 6.6132Z" fill="#C7A967"/>
<path d="M13.2846 8.87455C13.8547 8.86033 14.2681 8.53323 14.3394 7.92169C14.3821 7.50926 14.3536 7.09683 14.3536 6.67017C14.3536 6.25774 14.3821 5.83108 14.3394 5.41865C14.2824 4.84978 13.926 4.52268 13.3701 4.48001C12.7715 4.43735 12.2868 4.72178 12.2298 5.30488C12.1443 6.20085 12.1585 7.11105 12.2298 8.02125C12.2726 8.59012 12.743 8.88878 13.2846 8.87455Z" fill="#C7A967"/>
<path d="M17.7319 7.85047C17.7747 8.50467 18.188 8.86022 18.8009 8.87444C19.3853 8.88866 19.8415 8.54734 19.8842 7.96424C19.9555 7.11093 19.9697 6.2434 19.8842 5.40431C19.8272 4.79278 19.3568 4.45145 18.7154 4.50834C18.1168 4.56523 17.7747 4.92077 17.7319 5.51809C17.7034 5.90208 17.7319 6.30029 17.7319 6.68428C17.7319 7.06827 17.7034 7.45226 17.7319 7.85047Z" fill="#C7A967"/>
<path d="M29.9189 8.87431C30.5318 8.84587 30.9309 8.4761 30.9736 7.83612C31.0021 7.45213 30.9736 7.05392 30.9736 6.66993C30.9736 6.28594 31.0021 5.88773 30.9736 5.50374C30.9309 4.90643 30.5745 4.55088 29.9759 4.50821C29.3345 4.46555 28.8783 4.80687 28.8213 5.41841C28.7358 6.24328 28.7501 7.08236 28.8071 7.90723C28.8498 8.51877 29.2917 8.88854 29.9189 8.87431Z" fill="#C7A967"/>
</svg>
