<svg width="37" height="62" viewBox="0 0 37 62" fill="none" xmlns="http://www.w3.org/2000/svg">
<path d="M0 31.3292C0 23.0379 0 14.7465 0 6.44099C0 3.45441 1.85299 1.22158 4.71799 0.73804C5.06008 0.681152 5.43068 0.681152 5.78703 0.681152C13.9829 0.681152 22.1789 0.681152 30.3748 0.681152C33.7244 0.681152 36.1333 3.0562 36.1333 6.41255C36.1333 23.0236 36.1333 39.6347 36.1333 56.2458C36.1333 59.6022 33.7387 61.9772 30.389 61.9772C22.1931 61.9772 13.9972 61.9772 5.80128 61.9772C2.39463 61.9772 0.0142503 59.6306 0.0142503 56.2174C-3.48014e-06 47.9118 0 39.6205 0 31.3292ZM10.562 59.8155C11.4458 57.4689 12.8426 56.5018 15.2943 56.5018C17.2613 56.5018 19.2426 56.4876 21.2096 56.5018C23.2336 56.5303 24.6305 57.5116 25.386 59.3604C25.5427 59.7444 25.7423 59.8297 26.1129 59.8297C27.5098 59.8155 28.9209 59.8297 30.3178 59.8155C32.5556 59.8155 33.981 58.4075 33.981 56.1889C33.981 39.5921 33.981 23.0094 33.981 6.41255C33.981 4.19394 32.5413 2.78598 30.3035 2.78598C22.1361 2.78598 13.9544 2.78598 5.78703 2.78598C5.47344 2.78598 5.15986 2.8002 4.86053 2.85709C3.12157 3.22686 2.12381 4.57793 2.12381 6.56899C2.12381 23.0379 2.12381 39.521 2.12381 55.9898C2.12381 56.3454 2.13806 56.7009 2.19508 57.0565C2.43739 58.5071 3.69172 59.7302 5.15986 59.7871C6.95584 59.8724 8.73756 59.8155 10.562 59.8155ZM23.2194 59.7871C22.806 59.0902 22.2644 58.692 21.5659 58.6778C19.2426 58.6493 16.9192 58.6351 14.5959 58.6778C13.8689 58.692 13.3273 59.1044 12.8997 59.7871C16.3633 59.7871 19.7415 59.7871 23.2194 59.7871Z" fill="#C7A967"/>
<path d="M21.7474 6.54036C20.7211 6.54036 19.7091 6.55458 18.6828 6.54036C17.9559 6.52614 17.4998 6.12793 17.4713 5.51639C17.457 4.89063 17.9416 4.42131 18.6971 4.42131C20.7354 4.40709 22.7737 4.40709 24.8119 4.42131C25.5674 4.42131 26.0378 4.89063 26.0093 5.53061C25.9807 6.14215 25.5389 6.52614 24.7977 6.54036C23.7857 6.55458 22.7594 6.54036 21.7474 6.54036Z" fill="#C7A967"/>
<path d="M12.6393 5.50215C12.6393 6.42657 11.8839 7.15188 10.9574 7.13766C10.0594 7.12344 9.34673 6.39812 9.33247 5.50215C9.31822 4.59195 10.0737 3.82397 10.9859 3.82397C11.8981 3.82397 12.6393 4.57773 12.6393 5.50215Z" fill="#C7A967"/>
</svg>
