<svg width="32" height="28" viewBox="0 0 32 28" fill="none" xmlns="http://www.w3.org/2000/svg">
<path fill-rule="evenodd" clip-rule="evenodd" d="M18.8969 0.978279L19.386 0L27.5894 4.10168L27.1002 5.07996L18.8969 0.978279ZM31.4179 8.20609C31.5242 8.25907 31.6104 8.34527 31.6633 8.45157C31.7981 8.72187 31.6882 9.05021 31.4179 9.18495L29.5327 10.1245V18.0905C29.7649 18.1715 29.9757 18.3038 30.1496 18.4776C30.7877 19.1154 30.788 20.1497 30.1502 20.7878L31.1346 23.2559C31.1604 23.3205 31.1736 23.3894 31.1736 23.459C31.1735 23.761 30.9285 24.0058 30.6265 24.0057H27.3452C27.2765 24.0054 27.2086 23.9922 27.1448 23.9667C26.8643 23.8546 26.7278 23.5364 26.8398 23.2559L27.8242 20.7878C27.6506 20.6143 27.5183 20.4039 27.4372 20.1723C27.139 19.3208 27.5874 18.3887 28.4389 18.0905V10.6714L25.7045 12.0386V20.7244C25.7045 23.4846 21.3802 25.6464 15.8604 25.6464C10.3407 25.6464 6.01641 23.4846 6.01641 20.7244V12.0387L0.303036 9.18229C0.196735 9.12931 0.110531 9.0431 0.0575507 8.9368C-0.0771896 8.66643 0.0327356 8.33809 0.303036 8.20335L15.616 0.546878C15.7699 0.469971 15.951 0.469971 16.1049 0.546878L31.4179 8.20335V8.20609ZM15.8604 24.5526C21.0947 24.5526 24.6106 22.5734 24.6106 20.7244V20.2726C22.9902 21.8526 19.7209 22.9119 15.8604 22.9119C11.9999 22.9119 8.73056 21.8526 7.11012 20.2726V20.7244C7.11012 22.5734 10.6261 24.5526 15.8604 24.5526ZM15.8604 21.8181C21.0947 21.8181 24.6106 19.8389 24.6106 17.9899V12.5855L16.1048 16.8414C15.951 16.9183 15.7698 16.9183 15.6159 16.8414L7.11012 12.5855V17.9899C7.11012 19.8389 10.6261 21.8181 15.8604 21.8181ZM29.5327 19.6306C29.5327 19.3286 29.2878 19.0837 28.9858 19.0837C28.6837 19.0837 28.4389 19.3286 28.4389 19.6306C28.4389 19.9326 28.6837 20.1775 28.9858 20.1775C29.2878 20.1775 29.5327 19.9326 29.5327 19.6306ZM28.8162 21.2543L28.1529 22.9119H29.8187L29.1553 21.2543C29.1361 21.2562 29.1172 21.2587 29.0983 21.2613L29.0983 21.2613L29.0983 21.2613C29.0619 21.2663 29.0254 21.2712 28.9858 21.2712C28.9454 21.2712 28.9076 21.2661 28.8705 21.261C28.8523 21.2586 28.8343 21.2561 28.8162 21.2543ZM18.457 8.18414L28.883 9.22652L29.9505 8.69275L15.8604 1.6477L1.77028 8.69275L15.8604 15.7378L27.0503 10.1426L18.4187 9.27957C18.0403 9.9063 17.0696 10.3334 15.8604 10.3334C14.3012 10.3334 13.1259 9.62794 13.1259 8.69275C13.1259 7.75757 14.3012 7.05208 15.8604 7.05208C17.1182 7.05208 18.1147 7.5153 18.457 8.18414ZM15.8604 9.23964C16.9192 9.23964 17.5011 8.82893 17.5011 8.69275C17.5011 8.55658 16.9192 8.14586 15.8604 8.14586C14.8016 8.14586 14.2197 8.55658 14.2197 8.69275C14.2197 8.82893 14.8016 9.23964 15.8604 9.23964ZM6.44291 23.9734L5.58976 24.6581C5.9382 25.0768 6.35008 25.4383 6.81042 25.7295L7.412 24.8151C7.04736 24.5864 6.72046 24.3025 6.44291 23.9734ZM19.5984 26.441C18.3627 26.6432 17.1125 26.7433 15.8604 26.7402C13.3169 26.7956 10.789 26.3303 8.43195 25.3729L7.97585 26.3672C10.474 27.3972 13.1589 27.8968 15.8604 27.8339C17.1729 27.8371 18.4835 27.7321 19.7789 27.52L19.5984 26.441ZM28.683 4.64655L28.1938 5.62483L29.2875 6.17168L29.7767 5.19341L28.683 4.64655Z" fill="white"/>
</svg>
