<svg width="33" height="32" viewBox="0 0 33 32" fill="none" xmlns="http://www.w3.org/2000/svg">
<path fill-rule="evenodd" clip-rule="evenodd" d="M24.0632 6.56269H32.2666C32.5686 6.56269 32.8135 6.80756 32.8135 7.10958V15.313C32.8097 16.3074 32.1357 17.1742 31.1728 17.4229V31.1728C31.1728 31.4748 30.9279 31.7197 30.6259 31.7197H2.18756C1.88554 31.7197 1.64067 31.4748 1.64067 31.1728V17.4229C0.677735 17.1742 0.00375988 16.3074 0 15.313V7.10958C0 6.80756 0.24487 6.56269 0.546891 6.56269H8.75026V0.546891C8.75026 0.24487 8.99513 0 9.29715 0H23.5163C23.8183 0 24.0632 0.24487 24.0632 0.546891V6.56269ZM22.9694 1.09378H9.84404V6.56269H11.4847V3.28135C11.4847 2.97933 11.7296 2.73446 12.0316 2.73446H20.7819C21.0839 2.73446 21.3288 2.97933 21.3288 3.28135V6.56269H22.9694V1.09378ZM20.235 6.56269V3.82824H12.5785V6.56269H20.235ZM2.73446 30.6259H30.079V17.5005H19.1412V19.6881H20.7819C21.0839 19.6881 21.3288 19.9329 21.3288 20.235V22.9694H20.235V20.7819H19.1412V25.7039C19.1412 26.0059 18.8963 26.2508 18.5943 26.2508H14.2192C13.9171 26.2508 13.6723 26.0059 13.6723 25.7039V20.7819H12.5785V22.9694H11.4847V20.235C11.4847 19.9329 11.7296 19.6881 12.0316 19.6881H13.6723V17.5005H2.73446V30.6259ZM16.9536 20.7819V21.8756H15.8598V20.7819H14.7661V25.157H18.0474V20.7819H16.9536ZM30.6259 16.4067C31.23 16.4067 31.7197 15.9171 31.7197 15.313V7.65648H1.09378V15.313C1.09378 15.9171 1.58345 16.4067 2.18756 16.4067H14.2192C14.5212 16.4067 14.7661 16.6516 14.7661 16.9536V19.6881H15.8598V18.5943H16.9536V19.6881H18.0474V16.9536C18.0474 16.6516 18.2923 16.4067 18.5943 16.4067H30.6259ZM15.8598 22.9694H16.9536V24.0632H15.8598V22.9694Z" fill="white"/>
</svg>
