<svg width="35" height="25" viewBox="0 0 35 25" fill="none" xmlns="http://www.w3.org/2000/svg">
<path fill-rule="evenodd" clip-rule="evenodd" d="M28.8264 9.56786C30.2198 8.62741 31.1379 7.03411 31.1379 5.2304C31.1379 2.34644 28.7916 0.000136648 25.9076 0.000136648C23.0236 0.000136648 20.6773 2.34644 20.6773 5.2304C20.6773 7.03329 21.5945 8.62598 22.9869 9.56663C21.9726 9.91001 21.0229 10.4329 20.1797 11.1185C19.4663 10.4324 18.5088 10.0372 17.5006 10.0372C16.4924 10.0372 15.5349 10.4325 14.8219 11.1185C13.9785 10.4329 13.0287 9.91001 12.0142 9.56656C13.4066 8.62591 14.3238 7.03322 14.3238 5.23026C14.3238 2.3463 11.9775 0 9.0935 0C6.20988 0 3.86392 2.3463 3.86392 5.23026C3.86392 7.03398 4.78181 8.62721 6.17502 9.56772C2.5937 10.7846 0.0086819 14.177 0.000957059 18.1629L0.000498162 18.1706C0.000248108 18.174 0 18.1773 0 18.1808C0 19.2344 0.598709 20.7895 3.45116 22.2141C5.48368 23.2293 8.27679 23.9924 11.5286 24.4208C13.436 24.6724 15.4453 24.8 17.5006 24.8C19.5563 24.8 21.5658 24.6724 23.4732 24.4208C26.7247 23.9924 29.5176 23.2293 31.5501 22.2141C34.4023 20.7894 35.001 19.2344 35.001 18.1808C35.001 14.1872 32.4132 10.7866 28.8264 9.56786ZM22.05 5.2304C22.05 3.10326 23.7805 1.37277 25.9076 1.37277C28.0347 1.37277 29.7652 3.10333 29.7652 5.2304C29.7652 7.35719 28.0347 9.08735 25.9076 9.08735C23.7805 9.08735 22.05 7.35719 22.05 5.2304ZM15.4528 12.482C15.9191 11.8107 16.6845 11.4098 17.5005 11.4098C18.317 11.4098 19.0826 11.8107 19.5488 12.482L19.5491 12.4824C19.84 12.9008 19.9937 13.3919 19.9937 13.9031C19.9937 15.2779 18.8753 16.3963 17.5004 16.3963C16.126 16.3963 15.0079 15.2778 15.0079 13.903C15.0079 13.3911 15.1615 12.9001 15.4528 12.482ZM5.23641 5.2304C5.23641 3.10326 6.96664 1.37277 9.09336 1.37277C11.2205 1.37277 12.951 3.10333 12.951 5.2304C12.951 7.35719 11.2204 9.08735 9.09336 9.08735C6.96664 9.08735 5.23641 7.35719 5.23641 5.2304ZM10.9323 22.9497C8.16467 22.5283 5.8021 21.854 4.06456 20.9862C2.33365 20.1218 1.37851 19.1286 1.37297 18.189L1.37318 18.1849L1.37338 18.1808C1.37331 13.9236 4.83657 10.46 9.09343 10.46C10.9045 10.46 12.6323 11.0856 14.015 12.2316C13.7657 12.7497 13.6354 13.3177 13.6354 13.9031C13.6354 15.0979 14.1803 16.1677 15.0344 16.8774C12.6355 17.8527 10.9385 20.2063 10.9323 22.9497ZM22.6971 23.1334C21.0278 23.3282 19.2831 23.4275 17.5005 23.4275C15.7183 23.4275 13.9739 23.3282 12.3046 23.1334V22.9649C12.3046 20.0998 14.6354 17.769 17.5005 17.769C20.366 17.769 22.6971 20.0998 22.6971 22.9649V23.1334ZM30.9367 20.9861C29.1993 21.854 26.837 22.5282 24.0696 22.9497C24.0634 20.2062 22.3663 17.8528 19.9672 16.8773C20.8215 16.1676 21.3666 15.0978 21.3666 13.903C21.3666 13.3182 21.2363 12.7501 20.9867 12.2315C22.3687 11.0855 24.0964 10.4598 25.9077 10.4598C30.1649 10.4599 33.6285 13.9235 33.6285 18.1807C33.6285 19.1229 32.6725 20.1192 30.9367 20.9861ZM31.1325 14.1724C30.9011 13.8723 30.4702 13.8165 30.1699 14.0479C29.8697 14.2793 29.814 14.7103 30.0454 15.0104C30.7509 15.9257 31.1238 17.022 31.1238 18.1808C31.1238 18.5598 31.4311 18.8671 31.8101 18.8671C32.1891 18.8671 32.4964 18.5597 32.4964 18.1808C32.4964 16.716 32.0248 15.3299 31.1325 14.1724ZM29.076 12.5602C28.1929 12.5602 28.1913 13.9328 29.076 13.9328C29.9592 13.9328 29.9607 12.5602 29.076 12.5602Z" fill="white"/>
</svg>
