<svg width="34" height="35" viewBox="0 0 34 35" fill="none" xmlns="http://www.w3.org/2000/svg">
<path fill-rule="evenodd" clip-rule="evenodd" d="M8.75031 3.39977V22.7507C8.75031 23.0728 9.01151 23.334 9.33366 23.334H25.6675C25.9896 23.334 26.2508 23.0728 26.2508 22.7507V13.3167C27.1619 12.9941 27.6391 11.9941 27.3165 11.0829C27.0691 10.3843 26.4085 9.91725 25.6675 9.91696H15.1672C14.2006 9.91732 13.4174 10.7012 13.4178 11.6677C13.4181 12.4088 13.8853 13.0694 14.5838 13.3167V22.1673H9.91701V3.5001H16.9172V8.75026H18.0839V3.39977C18.995 3.07717 19.4721 2.07709 19.1496 1.16597C18.9023 0.46741 18.2417 0.000291675 17.5006 0H9.33366C8.36712 0.000364594 7.5839 0.784242 7.58434 1.75078C7.58463 2.49185 8.05175 3.15243 8.75031 3.39977ZM15.1672 11.0837H25.6675C25.9896 11.0837 26.2508 11.3449 26.2508 11.667C26.2508 11.9892 25.9896 12.2504 25.6675 12.2504H15.1672C14.845 12.2504 14.5838 11.9892 14.5838 11.667C14.5838 11.3449 14.845 11.0837 15.1672 11.0837ZM15.7505 13.4171H25.0841V22.1673H15.7505V13.4171ZM9.33366 1.1667H17.5006C17.8227 1.1667 18.0839 1.4279 18.0839 1.75005C18.0839 2.07221 17.8227 2.3334 17.5006 2.3334H9.33366C9.01151 2.3334 8.75031 2.07221 8.75031 1.75005C8.75031 1.4279 9.01151 1.1667 9.33366 1.1667ZM19.3199 4.77487L19.1813 5.93333C19.8899 6.01821 20.5909 6.15712 21.2783 6.34897L20.4544 8.54543L21.5467 8.95523L22.3891 6.70933C29.537 9.37546 33.2367 17.2716 30.7109 24.4702L29.0789 21.8581C29.0172 21.7595 28.9275 21.6815 28.8211 21.6342L27.6544 21.1157L27.1805 22.1818L28.1841 22.6279L30.165 25.798C29.4239 27.3639 28.4 28.7795 27.1447 29.9736L21.9782 25.2372C21.8541 25.1235 21.6869 25.0688 21.5196 25.0874L16.2694 25.6708C16.0433 25.6959 15.8524 25.8502 15.7804 26.0661L15.3301 27.4175H12.2504C12.0554 27.4175 11.8733 27.515 11.7651 27.6772L9.3901 31.2397C8.50035 30.6048 7.6873 29.8688 6.96737 29.0463L8.51697 27.8842C8.61191 27.813 8.68286 27.7145 8.72042 27.602L9.24047 26.0415L10.824 24.9858L10.1767 24.0151L8.4267 25.1818C8.31878 25.2538 8.23791 25.3596 8.19686 25.4826L7.67111 27.0602L6.23534 28.137C3.24545 24.0857 2.66166 18.7407 4.7066 14.1395C4.74823 14.0461 4.79126 13.9535 4.83479 13.8613L7.32271 15.1055L7.84451 14.062L5.37614 12.8275C6.07623 11.617 6.9541 10.5184 7.98036 9.56848L7.18686 8.71321C4.08825 11.5805 2.32872 15.6122 2.33346 19.8339C2.33346 28.1971 9.13744 35.001 17.5006 35.001C25.8637 35.001 32.6677 28.1971 32.6677 19.8339C32.6677 12.1589 26.9294 5.6849 19.3199 4.77487ZM10.3678 31.8765L12.5627 28.5842H15.7505C16.0016 28.5842 16.2246 28.4235 16.304 28.1853L16.7693 26.7894L21.385 26.2764L26.261 30.7464C21.7183 34.4033 15.3821 34.854 10.3677 31.8766L10.3678 31.8765ZM12.8338 5.25015H11.6671V6.41685H12.8338V5.25015ZM14.0005 5.25015H15.1672V6.41685H14.0005V5.25015ZM12.8338 7.58356H11.6671V8.75026H12.8338V7.58356ZM14.0005 7.58356H15.1672V8.75026H14.0005V7.58356ZM12.8338 9.91696H11.6671V11.0837H12.8338V9.91696ZM19.834 14.5838H21.0007V15.7505H19.834V14.5838ZM23.3341 14.5838H22.1674V15.7505H23.3341V14.5838ZM19.834 16.9172H21.0007V18.0839H19.834V16.9172ZM23.3341 16.9172H22.1674V18.0839H23.3341V16.9172ZM19.834 19.2506H21.0007V20.4173H19.834V19.2506ZM18.6673 14.5838H17.5006V15.7505H18.6673V14.5838ZM17.5006 16.9172H18.6673V18.0839H17.5006V16.9172ZM18.6673 19.2506H17.5006V20.4173H18.6673V19.2506ZM22.1674 19.2506H23.3341V20.4173H22.1674V19.2506ZM12.8338 12.2504H11.6671V13.4171H12.8338V12.2504ZM11.6671 14.5838H12.8338V15.7505H11.6671V14.5838ZM12.8338 16.9172H11.6671V18.0839H12.8338V16.9172ZM11.6671 19.2506H12.8338V20.4173H11.6671V19.2506ZM1.51676 16.4539C1.28371 17.5655 1.16638 18.6982 1.16675 19.8339C1.15515 24.8282 3.4397 29.5507 7.36266 32.6416L6.63785 33.5559C2.43503 30.2443 -0.0124941 25.1847 4.79686e-05 19.8339C-0.000243707 18.6175 0.125395 17.4043 0.374997 16.2137L1.51676 16.4539ZM7.67329 34.3168C8.01601 34.5497 8.37142 34.7732 8.72989 34.9813L9.3155 33.9721C8.98088 33.778 8.64902 33.5693 8.32935 33.3519L7.67329 34.3168ZM23.696 4.71566L24.1388 3.63646C28.6814 5.50486 32.2335 9.19076 33.9327 13.7992L32.8374 14.2016C31.2515 9.90004 27.936 6.45958 23.696 4.71566Z" fill="white"/>
</svg>
