<svg width="33" height="33" viewBox="0 0 33 33" fill="none" xmlns="http://www.w3.org/2000/svg">
<path d="M32.2666 7.64596H3.28135C2.97933 7.64596 2.73446 7.89083 2.73446 8.19285V9.83352H0.546891C0.24487 9.83352 0 10.0784 0 10.3804V24.5996C0 24.9016 0.24487 25.1465 0.546891 25.1465H30.079C30.381 25.1465 30.6259 24.9016 30.6259 24.5996V22.9589H32.2666C32.5686 22.9589 32.8135 22.714 32.8135 22.412V8.19285C32.8135 7.89083 32.5686 7.64596 32.2666 7.64596ZM1.09378 10.9273H4.33138C4.0876 12.6041 2.77055 13.9211 1.09378 14.1649V10.9273ZM1.09378 24.0527V20.8151C2.77055 21.0589 4.0876 22.3759 4.33138 24.0527H1.09378ZM29.5321 24.0527H26.2945C26.5383 22.3759 27.8554 21.0589 29.5321 20.8151V24.0527ZM29.5321 19.7098C27.2491 19.9681 25.4475 21.7697 25.1893 24.0527H5.43664C5.17838 21.7697 3.37678 19.9681 1.09378 19.7098V15.2702C3.37678 15.0119 5.17838 13.2103 5.43664 10.9273H25.1893C25.4475 13.2103 27.2491 15.0119 29.5321 15.2702V19.7098ZM29.5321 14.1649C27.8554 13.9211 26.5383 12.6041 26.2945 10.9273H29.5321V14.1649ZM31.7197 21.8651H30.6259V10.3804C30.6259 10.0784 30.381 9.83352 30.079 9.83352H3.82824V8.73974H31.7197V21.8651Z" fill="white"/>
<path d="M16.883 18.198C16.7569 17.7927 16.4706 17.4565 16.0905 17.2674L15.0246 16.7342C14.7938 16.6189 14.7003 16.3385 14.8155 16.1077C14.8945 15.9495 15.0561 15.8495 15.233 15.8493H15.3927C15.6504 15.8499 15.8591 16.0587 15.8597 16.3164V16.3962H16.9535V16.3164C16.951 15.6369 16.5084 15.0373 15.8597 14.8348V14.2087H14.766V14.8348C13.9457 15.09 13.4876 15.9617 13.7427 16.782C13.8688 17.1873 14.1551 17.5235 14.5352 17.7126L15.6011 18.2458C15.8318 18.3611 15.9254 18.6416 15.8102 18.8723C15.7311 19.0305 15.5695 19.1305 15.3927 19.1307H15.233C14.9753 19.1301 14.7666 18.9214 14.766 18.6636V18.5838H13.6722V18.6636C13.6747 19.3431 14.1173 19.9427 14.766 20.1452V20.7713H15.8597V20.1452C16.68 19.89 17.1381 19.0183 16.883 18.198Z" fill="white"/>
<path d="M15.3129 12.0211C12.2925 12.0211 9.84399 14.4696 9.84399 17.49C9.84734 20.509 12.2939 22.9556 15.3129 22.9589C18.3333 22.9589 20.7818 20.5104 20.7818 17.49C20.7818 14.4696 18.3333 12.0211 15.3129 12.0211ZM15.3129 21.8651C12.8966 21.8651 10.9378 19.9063 10.9378 17.49C10.9405 15.0748 12.8977 13.1176 15.3129 13.1149C17.7292 13.1149 19.688 15.0737 19.688 17.49C19.688 19.9063 17.7292 21.8651 15.3129 21.8651Z" fill="white"/>
<path d="M27.6214 27.0639C21.7544 32.915 12.3744 33.2708 6.081 27.8809H8.20348V26.7871H4.92214C4.62011 26.7871 4.37524 27.032 4.37524 27.334V30.6154H5.46903V28.7964C12.2015 34.476 22.1603 34.0592 28.3947 27.8372L27.6214 27.0639Z" fill="white"/>
<path d="M27.3446 2.17706V3.99602C20.6112 -1.6803 10.6547 -1.2637 4.41895 4.95527L5.19225 5.72857C11.0593 -0.122546 20.4392 -0.478367 26.7327 4.91152H24.6102V6.0053H27.8915C28.1935 6.0053 28.4384 5.76043 28.4384 5.45841V2.17706H27.3446Z" fill="white"/>
</svg>
