<svg width="33" height="33" viewBox="0 0 33 33" fill="none" xmlns="http://www.w3.org/2000/svg">
<path fill-rule="evenodd" clip-rule="evenodd" d="M31.1728 0H27.8914V1.09378H29.8526L25.7039 5.2425L22.8092 2.3478C22.5956 2.13431 22.2494 2.13431 22.0359 2.3478L14.7661 9.61763L10.7776 5.62915C10.564 5.41566 10.2178 5.41566 10.0043 5.62915L3.44159 12.1918L4.21489 12.9651L10.3909 6.78911L14.3794 10.7776C14.593 10.9911 14.9392 10.9911 15.1527 10.7776L22.4225 3.50776L25.3172 6.40245C25.5308 6.61595 25.877 6.61595 26.0905 6.40245L30.6259 1.86709V3.82824H31.7197V0.546891C31.7197 0.24487 31.4748 0 31.1728 0ZM28.4383 9.29715H25.157V10.3909H28.4383V9.29715ZM30.079 11.4847C30.381 11.4847 30.6259 11.7296 30.6259 12.0316V31.7197H32.8135V32.8135H0V31.7197H2.18756V21.8756C2.18756 21.5736 2.43243 21.3288 2.73446 21.3288H7.10958C7.4116 21.3288 7.65648 21.5736 7.65648 21.8756V31.7197H9.84404V18.5943C9.84404 18.2923 10.0889 18.0474 10.3909 18.0474H14.7661C15.0681 18.0474 15.313 18.2923 15.313 18.5943V31.7197H17.5005V15.313C17.5005 15.0109 17.7454 14.7661 18.0474 14.7661H22.4225C22.7246 14.7661 22.9694 15.0109 22.9694 15.313V31.7197H25.157V12.0316C25.157 11.7296 25.4019 11.4847 25.7039 11.4847H30.079ZM3.28135 31.7197H6.56269V22.4225H3.28135V31.7197ZM10.9378 31.7197H14.2192V19.1412H10.9378V31.7197ZM18.5943 31.7197H21.8756V15.8598H18.5943V31.7197ZM29.5321 31.7197V12.5785H26.2508V31.7197H29.5321ZM13.1254 15.8598H9.84404V16.9536H13.1254V15.8598ZM14.2192 15.8598V16.9536H15.313V15.8598H14.2192ZM5.46891 19.1412H2.18756V20.235H5.46891V19.1412ZM6.56269 19.1412H7.65648V20.235H6.56269V19.1412ZM20.7819 12.5785H17.5005V13.6723H20.7819V12.5785ZM22.9694 12.5785V13.6723H21.8756V12.5785H22.9694ZM29.5321 9.29715H30.6259V10.3909H29.5321V9.29715ZM2.07393 13.5589L2.89413 12.7387L3.66755 13.5121L2.84734 14.3323L2.07393 13.5589Z" fill="white"/>
</svg>
