<svg width="26" height="33" viewBox="0 0 26 33" fill="none" xmlns="http://www.w3.org/2000/svg">
<path fill-rule="evenodd" clip-rule="evenodd" d="M16.9536 6.28925V8.38657C22.5806 10.6184 25.157 17.43 25.157 22.9393C25.157 29.2144 20.5724 32.8135 12.5785 32.8135C4.58459 32.8135 0 29.2144 0 22.9393C0 17.43 2.5764 10.6184 8.20337 8.38657V6.28925L6.23456 4.81264C6.09688 4.70935 6.0158 4.54726 6.0158 4.37513V0.546891C6.0158 0.24487 6.26067 0 6.56269 0H8.75026C8.89532 0 9.03437 0.057697 9.13691 0.160239L9.84404 0.867369L10.5512 0.160239C10.6537 0.057697 10.7928 0 10.9378 0H14.2192C14.3642 0 14.5033 0.057697 14.6058 0.160239L15.313 0.867369L16.0201 0.160239C16.1226 0.057697 16.2617 0 16.4067 0H18.5943C18.8963 0 19.1412 0.24487 19.1412 0.546891V4.37513C19.1412 4.54726 19.0601 4.70935 18.9224 4.81264L16.9536 6.28925ZM7.10958 1.09378V4.10168L8.93237 5.46891H16.2246L18.0474 4.10168V1.09378H16.6331L15.6996 2.02733C15.486 2.24082 15.1399 2.24082 14.9263 2.02733L13.9928 1.09378H11.1642L10.2307 2.02733C10.0171 2.24082 9.67095 2.24082 9.45739 2.02733L8.52384 1.09378H7.10958ZM15.8598 8.20337V6.56269H9.29715V8.20337H15.8598ZM1.09378 22.9393C1.09378 30.8643 9.12542 31.7197 12.5785 31.7197C16.0316 31.7197 24.0632 30.8643 24.0632 22.9393C24.0632 17.5459 21.4015 11.1495 16.3116 9.29715H8.84542C3.7555 11.1495 1.09378 17.5459 1.09378 22.9393ZM12.5785 13.6723C8.65387 13.6768 5.47342 16.8572 5.46891 20.7819C5.46891 24.7084 8.65195 27.8914 12.5785 27.8914C16.505 27.8914 19.6881 24.7084 19.6881 20.7819C19.6881 16.8553 16.505 13.6723 12.5785 13.6723ZM12.5785 26.7977C9.25606 26.7977 6.56269 24.1043 6.56269 20.7819C6.56269 17.4594 9.25606 14.7661 12.5785 14.7661C15.8993 14.77 18.5904 17.4611 18.5943 20.7819C18.5943 24.1043 15.9009 26.7977 12.5785 26.7977ZM13.3545 20.4636L12.1514 20.0627C11.7536 19.9315 11.4849 19.56 11.4847 19.1412C11.4847 18.5371 11.9744 18.0474 12.5785 18.0474C13.1826 18.0474 13.6723 18.5371 13.6723 19.1412H14.7661C14.7623 18.1467 14.0883 17.2799 13.1254 17.0313V15.8598H12.0316V17.0313C11.0687 17.2799 10.3947 18.1467 10.3909 19.1412C10.3902 20.0301 10.959 20.8195 11.8025 21.1002L13.0084 21.501C13.405 21.6332 13.6725 22.0044 13.6723 22.4225C13.6723 23.0266 13.1826 23.5163 12.5785 23.5163C11.9744 23.5163 11.4847 23.0266 11.4847 22.4225H10.3909C10.3947 23.417 11.0687 24.2838 12.0316 24.5324V25.7039H13.1254V24.5324C14.0883 24.2838 14.7623 23.417 14.7661 22.4225C14.7667 21.5336 14.198 20.7443 13.3545 20.4636Z" fill="white"/>
</svg>
