<svg width="35" height="30" viewBox="0 0 35 30" fill="none" xmlns="http://www.w3.org/2000/svg">
<path d="M35.001 21.0846C35.001 16.4369 31.2241 12.6181 26.5345 12.6181C23.6976 12.6181 21.1823 14.0207 19.6452 16.1687H8.96867V14.1169C8.96867 13.4604 8.43463 12.9264 7.77816 12.9264H5.35311C4.69663 12.9264 4.16259 13.4604 4.16259 14.1169V16.1687H3.5792C2.16876 16.1687 1.02132 15.0213 1.02132 13.6108V9.79304C1.02132 8.38261 2.16883 7.23516 3.5792 7.23516H27.7995C29.2099 7.23516 30.3574 8.38261 30.3574 9.79304V12.1041C30.3574 12.3862 30.586 12.6148 30.8681 12.6148C31.1502 12.6148 31.3788 12.3862 31.3788 12.1041V9.79304C31.3788 7.81952 29.7731 6.21384 27.7995 6.21384H22.4992V3.9988C22.4992 1.79387 20.7053 0 18.5004 0H12.8784C10.6734 0 8.8796 1.79387 8.8796 3.9988V6.21391H3.5792C1.60567 6.21385 0 7.81952 0 9.79304V24.9371C0 26.9107 1.60567 28.5163 3.5792 28.5163H19.9006C20.1827 28.5163 20.4113 28.2877 20.4113 28.0057C20.4113 27.7236 20.1827 27.495 19.9006 27.495H3.5792C2.16876 27.495 1.02132 26.3475 1.02132 24.9371V16.1109C1.67157 16.7761 2.57777 17.19 3.5792 17.19H4.16259V17.7091C4.16259 19.0341 5.24058 20.1121 6.56563 20.1121C7.89068 20.1121 8.96867 19.0341 8.96867 17.7091V17.19H19.0186C18.4116 18.3566 18.068 19.6812 18.068 21.0846C18.068 25.7335 21.846 29.5512 26.5345 29.5512C31.219 29.5512 35.001 25.7369 35.001 21.0846ZM19.4238 6.21384H11.955V3.9988C11.955 3.48958 12.3692 3.07537 12.8784 3.07537H18.5004C19.0096 3.07537 19.4238 3.48964 19.4238 3.9988V6.21384ZM9.90092 3.9988C9.90092 2.35696 11.2366 1.02132 12.8784 1.02132H18.5004C20.1422 1.02132 21.4778 2.35703 21.4778 3.9988V6.21391H20.4451V3.9988C20.4451 2.92648 19.5727 2.05405 18.5004 2.05405H12.8784C11.8061 2.05405 10.9337 2.92648 10.9337 3.9988V6.21391H9.90092V3.9988ZM5.35311 13.9477H7.77816C7.87147 13.9477 7.94735 14.0237 7.94735 14.1169V14.8998H5.18391V14.1169C5.18391 14.0236 5.25986 13.9477 5.35311 13.9477ZM7.94735 17.7091C7.94735 18.471 7.32752 19.0907 6.56563 19.0907C5.80374 19.0907 5.18391 18.471 5.18391 17.7091V15.921H7.94728V17.7091H7.94735ZM33.2026 24.3936C32.5515 24.2092 31.7377 24.0571 30.811 23.943C31.1517 22.1131 31.1524 20.0594 30.811 18.2262C31.7377 18.1121 32.5515 17.96 33.2026 17.7756C33.6996 18.773 33.9798 19.8966 33.9798 21.0846C33.9797 22.2726 33.6996 23.3962 33.2026 24.3936ZM29.5502 17.3265C28.7637 17.3908 27.9181 17.4302 27.0451 17.4414V13.7266C28.3519 14.1681 29.1719 15.9998 29.5502 17.3265ZM26.0238 13.7235V17.4414C25.1512 17.4302 24.3062 17.3909 23.5199 17.3266C24.0582 15.4325 24.9817 14.0658 26.0238 13.7235ZM23.5181 24.8429C24.3049 24.7785 25.1506 24.739 26.0239 24.728V28.445C24.9825 28.1042 24.0569 26.7449 23.5181 24.8429ZM27.0451 28.4427V24.7279C27.9181 24.739 28.7637 24.7785 29.5502 24.8428C29.172 26.169 28.3521 28.0011 27.0451 28.4427ZM27.0451 23.7065V18.4628C28.009 18.4511 28.934 18.4065 29.7894 18.3325C30.1293 20.0893 30.132 22.066 29.7894 23.8368C28.934 23.7628 28.009 23.7181 27.0451 23.7065ZM32.6632 16.8625C32.0853 17.0074 31.3788 17.1293 30.5844 17.2234C30.2471 15.9666 29.7477 14.8985 29.1343 14.1081C30.5735 14.6462 31.8028 15.6174 32.6632 16.8625ZM23.9281 14.1106C23.3182 14.8973 22.8205 15.9617 22.4837 17.2234C21.6896 17.1292 20.9834 17.0074 20.4057 16.8625C21.2648 15.6193 22.4917 14.6492 23.9281 14.1106ZM19.8664 17.7757C20.5176 17.9602 21.3314 18.1123 22.2584 18.2264C22.1505 18.8086 22.0743 19.423 22.0342 20.0638C22.0165 20.3452 22.2304 20.5878 22.5119 20.6054C22.7928 20.6227 23.0358 20.4092 23.0535 20.1276C23.0927 19.5025 23.1703 18.9007 23.2806 18.3326C24.1357 18.4065 25.0603 18.4511 26.0238 18.4628V23.7065C25.0603 23.7182 24.1357 23.7628 23.2805 23.8367C23.1942 23.3905 23.1272 22.9236 23.0837 22.4393C23.0585 22.1584 22.8102 21.9504 22.5295 21.9763C22.2486 22.0015 22.0413 22.2496 22.0664 22.5305C22.1098 23.0131 22.1754 23.4854 22.2613 23.9426C21.3331 24.0567 20.5182 24.209 19.8663 24.3937C19.3693 23.3963 19.0892 22.2727 19.0892 21.0847C19.0893 19.8967 19.3694 18.7731 19.8664 17.7757ZM20.4058 25.3068C20.985 25.1615 21.6932 25.0395 22.4896 24.9452C22.7812 26.0299 23.2427 27.1693 23.9342 28.061C22.4952 27.5228 21.2661 26.5517 20.4058 25.3068ZM29.1343 28.0612C29.7477 27.2708 30.2471 26.2027 30.5844 24.9458C31.3788 25.04 32.0853 25.1618 32.6632 25.3068C31.8028 26.5518 30.5735 27.5231 29.1343 28.0612Z" fill="white"/>
</svg>
