<svg width="44" height="47" viewBox="0 0 44 47" fill="none" xmlns="http://www.w3.org/2000/svg">
<path fill-rule="evenodd" clip-rule="evenodd" d="M40.279 0.569336H32.138H23.8236C22.0269 0.581714 20.7506 1.84428 20.7506 3.62672C20.7382 7.17922 20.7382 10.7193 20.7506 14.2719C20.7506 16.0667 22.0021 17.3292 23.7988 17.3664C24.0317 17.3713 24.2646 17.3684 24.4975 17.3654H24.4977C24.8471 17.3609 25.1965 17.3565 25.546 17.3787C25.6947 17.3911 25.9301 17.552 25.9549 17.6758C26.1779 18.7032 26.2275 19.7306 25.8433 20.7332C25.4716 21.7234 25.992 22.3919 27.0577 22.2681C28.0118 22.1567 28.842 21.7482 29.5483 21.1169C30.5768 20.2009 31.3822 19.0993 31.9522 17.8491C32.138 17.4406 32.3611 17.354 32.77 17.354C35.2606 17.3787 37.7636 17.3787 40.2542 17.3664C42.212 17.354 43.4759 16.1038 43.4759 14.1605V3.78763C43.4759 1.81952 42.2368 0.569336 40.279 0.569336ZM28.355 19.4969L28.355 19.4969C28.3086 19.5337 28.2633 19.5697 28.2224 19.6068C28.1743 19.2976 28.129 18.9932 28.0842 18.692L28.0839 18.6901L28.0838 18.6893L28.0838 18.6892L28.0838 18.6891L28.0838 18.689L28.0838 18.689C27.9673 17.9059 27.854 17.1442 27.702 16.3761C27.5285 15.5592 27.2312 15.3735 26.4009 15.3735C26.1283 15.3735 25.8557 15.3749 25.5831 15.3763H25.583C25.0378 15.379 24.4927 15.3818 23.9475 15.3735C23.0553 15.3611 22.7208 15.0269 22.7208 14.1481V3.73812C22.7208 2.88403 23.0677 2.53745 23.9103 2.53745H40.2914C41.1464 2.53745 41.4933 2.89641 41.4933 3.78763V14.0986C41.4933 15.0393 41.1464 15.3859 40.2047 15.3859C39.4336 15.3859 38.6615 15.3879 37.8887 15.3899C35.9542 15.395 34.0151 15.4 32.0761 15.3735C31.2954 15.3611 30.8865 15.6334 30.5148 16.339C30.11 17.1188 29.6003 17.8462 29.0906 18.5736C28.945 18.7814 28.7993 18.9893 28.6561 19.1983C28.578 19.3197 28.4635 19.4107 28.355 19.4969ZM4.14643 38.6813C1.23452 40.6742 -0.116108 43.4592 0.00780311 46.9622H0.0138884C13.1836 46.9622 26.3657 46.9622 39.5602 46.9375C39.5974 44.3752 38.9407 42.0481 37.144 40.1295C35.942 38.8422 34.4551 37.9634 32.8814 37.2331C32.3055 36.9682 31.7261 36.7168 31.1478 36.4659L31.1477 36.4659L31.1477 36.4658L31.1477 36.4658L31.1476 36.4658C30.1583 36.0365 29.1718 35.6085 28.21 35.1164C27.4293 34.7203 26.7354 34.1262 26.0911 33.532C25.8433 33.2968 25.7318 32.8265 25.707 32.4551C25.6574 31.601 25.6698 30.7469 25.707 29.8929C25.7194 29.6205 25.8433 29.2987 26.0168 29.0883C26.9089 28.0361 27.5161 26.8602 27.6524 25.4739C27.7267 24.756 27.3674 24.298 26.7974 24.2361C26.215 24.1742 25.8185 24.5579 25.6822 25.2511C25.4468 26.4518 24.9883 27.5658 24.059 28.3951C23.7987 28.6303 23.712 28.8531 23.712 29.1749C23.7138 29.3412 23.7158 29.5074 23.7178 29.6736V29.6737C23.73 30.671 23.7421 31.6683 23.6996 32.6655C23.6624 33.4701 23.9474 34.1138 24.4183 34.7203C25.3228 35.8962 26.5743 36.6018 27.8878 37.2083C28.5986 37.5365 29.3151 37.8502 30.0304 38.1635C30.7991 38.5001 31.5665 38.8362 32.3238 39.1888C33.5505 39.7458 34.7029 40.4513 35.6446 41.4416C36.574 42.4071 37.0696 43.583 37.2803 44.9322H2.32494C2.32163 44.9123 2.31831 44.8942 2.31523 44.8774L2.31522 44.8773C2.3068 44.8314 2.30016 44.7952 2.30016 44.7589C2.30016 44.697 2.31255 44.6228 2.32494 44.5485C2.64711 43.1869 3.19232 41.9243 4.31991 41.0703C5.28642 40.3399 6.31488 39.6715 7.3929 39.1269C8.29857 38.6672 9.23438 38.2635 10.1699 37.8599L10.17 37.8598C10.8216 37.5787 11.473 37.2977 12.1139 36.9979C13.2415 36.478 14.3071 35.822 15.0506 34.7946C15.3976 34.3118 15.7569 33.7301 15.8065 33.1607C15.8902 32.1666 15.8692 31.1656 15.8482 30.1681V30.1681L15.8482 30.168C15.8413 29.8364 15.8343 29.5053 15.8313 29.1749C15.8313 29.014 15.7693 28.8036 15.6578 28.7046C14.9887 28.1476 14.555 27.4172 14.3443 26.6127C14.1447 25.8845 14.012 25.138 13.8737 24.3607C13.8146 24.0281 13.7544 23.6898 13.6876 23.3449C13.6504 23.3325 13.4522 23.2953 13.2539 23.283C12.5724 23.2458 12.1883 22.8374 12.0272 22.2308C11.8413 21.5624 11.6183 20.7083 12.275 20.3122C13.0804 19.8295 12.9689 19.322 12.7459 18.666C12.6894 18.5079 12.6535 18.3395 12.6194 18.1797L12.6194 18.1796L12.6096 18.1337C12.1139 15.7942 11.767 13.4424 12.2626 11.0534C12.7459 8.71399 14.1089 7.17911 16.5128 6.70874C17.0518 6.60662 17.6117 6.56717 18.1716 6.52771C18.3583 6.51456 18.5449 6.50141 18.7308 6.48594C19.3751 6.43642 19.8088 6.02795 19.784 5.47094C19.7716 4.90154 19.3256 4.49307 18.6812 4.50545C18.2104 4.51782 17.7395 4.54258 17.2686 4.60447C14.7532 4.9263 12.6343 5.92892 11.2713 8.18173C10.4659 9.51856 10.1561 11.0039 10.0818 12.5512C9.98265 14.6059 10.3048 16.6112 10.7385 18.6041C10.7757 18.7897 10.7633 19.0621 10.6518 19.1858C9.48701 20.4484 9.82156 22.8497 10.7385 23.9638C10.9739 24.2485 11.2961 24.4836 11.6307 24.6446C11.9033 24.7807 12.0272 24.9169 12.052 25.2387C12.1511 26.3651 12.2874 27.5534 13.0433 28.4199C13.8115 29.3111 13.9478 30.2518 13.8611 31.3287C13.8363 31.5887 13.8239 31.8486 13.8611 32.0962C13.9974 33.0121 13.5885 33.6929 12.8946 34.1509C11.9528 34.7698 10.9739 35.3392 9.95786 35.8096C9.41778 36.0623 8.87015 36.2999 8.32252 36.5375L8.32247 36.5375C6.88497 37.1612 5.44748 37.785 4.14643 38.6813ZM31.6548 10.4718H38.507V12.378H31.6548V10.4718ZM33.5382 5.52057H26.7107V7.42679H33.5382V5.52057ZM29.6102 10.4841V12.378H26.6983V10.4841H29.6102ZM38.507 7.43913V5.53291H35.6199V7.43913H38.507Z" fill="#FAFCFE"/>
</svg>
