<svg width="48" height="44" viewBox="0 0 48 44" fill="none" xmlns="http://www.w3.org/2000/svg">
<path fill-rule="evenodd" clip-rule="evenodd" d="M34.1276 32.083C34.3882 32.6604 34.6262 33.1925 34.8529 33.7247C35.5104 35.1798 36.165 36.6348 36.8196 38.0899C37.474 39.5445 38.1285 40.9991 38.7857 42.4537C39.035 43.0085 38.7404 43.4727 38.1397 43.4727H34.7962C34.4449 43.4727 34.2182 43.3255 34.0822 43.0085C32.7448 40.0196 31.3961 37.0306 30.0474 34.053C29.972 33.886 29.8957 33.7189 29.8192 33.5516C29.6313 33.1406 29.4426 32.7279 29.2654 32.3094C29.1974 32.1509 29.1181 32.083 28.9367 32.083H19.3144C19.0991 32.083 19.0311 32.1849 18.9518 32.3547C18.0564 34.3587 17.161 36.3626 16.2543 38.3553C15.9972 38.928 15.7385 39.4992 15.4799 40.0699C15.0434 41.0336 14.6074 41.9962 14.1803 42.9632C14.0216 43.3142 13.7836 43.484 13.3869 43.4727C12.662 43.4651 11.9421 43.4677 11.2205 43.4702C10.8591 43.4714 10.4973 43.4727 10.1342 43.4727C9.4768 43.4727 9.18212 43.0198 9.45413 42.4084C10.0645 41.055 10.673 39.7015 11.2812 38.3488L11.2814 38.3483L11.2817 38.3477L11.2819 38.3472L11.2822 38.3466L11.2824 38.3461L11.2827 38.3455L11.2837 38.3433L11.2842 38.342L11.2848 38.3408L11.2854 38.3395L11.2859 38.3383L11.2865 38.337C12.1671 36.3783 13.0471 34.4211 13.9309 32.468C13.9564 32.4108 13.9818 32.35 14.0113 32.2797L14.0113 32.2796L14.0113 32.2795L14.0114 32.2794C14.0344 32.2245 14.0598 32.1637 14.0896 32.0943H13.6929H1.04454C0.432522 32.0943 0.228516 31.8905 0.228516 31.2678V1.75206C0.228516 1.20861 0.455189 0.982178 0.999206 0.982178H47.1953C47.7846 0.982178 48 1.19729 48 1.78602V31.2565C48 31.8792 47.796 32.0717 47.1839 32.0717H34.5356C34.4222 32.083 34.3089 32.083 34.1276 32.083H34.1276ZM46.6739 2.34079H1.56589V30.7244H46.6739V2.34079ZM37.0746 41.9363L37.0746 41.9362C37.0506 41.8778 37.03 41.8277 37.0063 41.7744C36.8481 41.4245 36.69 41.0719 36.5318 40.7192L36.5316 40.7188L36.5302 40.7157C36.3716 40.3619 36.2129 40.0082 36.0543 39.6573C35.2181 37.7886 34.3753 35.9265 33.531 34.0609L33.5303 34.0594L33.5296 34.0578L33.5289 34.0563L33.5283 34.0548L33.5276 34.0533L33.5254 34.0485L33.5245 34.0464L33.5227 34.0424L33.5209 34.0385C33.2585 33.4588 32.996 32.8788 32.7335 32.2981C32.6882 32.2076 32.5862 32.083 32.5068 32.083C32.0495 32.0661 31.5922 32.0681 31.1206 32.0703H31.1206H31.1205H31.1205H31.1204H31.1204H31.1203H31.1203H31.12H31.1198H31.1195H31.1193C30.9602 32.071 30.7996 32.0717 30.6368 32.0717C30.6544 32.12 30.6686 32.1615 30.6813 32.1989L30.6813 32.199L30.6813 32.199L30.6814 32.1991C30.7015 32.2579 30.718 32.3063 30.7388 32.3547L30.7388 32.3548C31.5322 34.121 32.3255 35.8871 33.1302 37.6533C33.7535 39.0459 34.3769 40.4385 35.0116 41.8197C35.0682 41.9329 35.1929 42.1028 35.2949 42.1028C35.7826 42.1298 36.2559 42.1281 36.7607 42.1263C36.8894 42.1259 37.0201 42.1254 37.1536 42.1254C37.1212 42.0498 37.0965 41.9896 37.0746 41.9363ZM11.0635 42.1254C11.2173 42.1254 11.3659 42.1247 11.5104 42.1239L11.5118 42.1239C11.9313 42.1218 12.3165 42.1199 12.6956 42.1367C12.9676 42.148 13.1036 42.0575 13.2169 41.7971C14.055 39.9152 14.8984 38.0437 15.7434 36.1685L15.7435 36.1684L15.7435 36.1682L15.7436 36.1681L15.7437 36.1679L15.7438 36.1678L15.744 36.1672C16.1443 35.2789 16.545 34.3897 16.9457 33.4982C17.0801 33.1925 17.2145 32.8916 17.3553 32.5763C17.4283 32.4129 17.503 32.2456 17.5804 32.0717C17.4274 32.0717 17.2782 32.0724 17.1318 32.0731H17.1313H17.1312C16.703 32.0753 16.2999 32.0772 15.903 32.0604C15.6423 32.049 15.5403 32.1509 15.4383 32.3774C14.586 34.2834 13.7282 36.1894 12.8688 38.0991C12.4826 38.9573 12.0961 39.8162 11.7095 40.6762C11.5055 41.1404 11.3015 41.6046 11.0635 42.1254ZM34.9096 14.5002L33.5155 15.0777C33.4702 15.0946 33.4277 15.1144 33.3852 15.1343C33.3427 15.1541 33.3002 15.1739 33.2548 15.1909C32.8808 15.3154 32.5182 15.1569 32.3822 14.8172C32.2461 14.4663 32.3821 14.104 32.7448 13.9455C33.7535 13.5152 34.7509 13.0963 35.7709 12.6774C36.1789 12.5076 36.5189 12.6435 36.6889 13.0511C37.1196 14.0474 37.539 15.0437 37.947 16.04C38.1057 16.4363 37.9583 16.7986 37.607 16.9457C37.2443 17.1042 36.8816 16.9457 36.7003 16.5495C36.5189 16.1419 36.3489 15.7343 36.1563 15.2701C36.0885 15.4127 36.0241 15.5507 35.9613 15.6854L35.9609 15.6861C35.8243 15.9789 35.6953 16.2555 35.5556 16.5268C34.0255 19.4026 31.7588 21.5424 28.948 23.1387C25.8766 24.8823 22.5559 25.8333 19.0537 26.2409C18.4304 26.3088 17.807 26.3541 17.1837 26.3994C17.1153 26.407 17.0418 26.4044 16.97 26.4019L16.9699 26.4019C16.9347 26.4006 16.8999 26.3994 16.8663 26.3994C16.4583 26.3768 16.1977 26.1277 16.1863 25.7427C16.175 25.3465 16.4357 25.0861 16.8663 25.0634C16.987 25.0557 17.108 25.0482 17.2292 25.0408L17.2311 25.0406L17.2327 25.0405C17.8162 25.0047 18.4049 24.9685 18.9857 24.8936C22.4765 24.4747 25.7973 23.4784 28.812 21.6329C31.1694 20.1951 33.0622 18.3157 34.3655 15.8589C34.5505 15.5078 34.7052 15.1493 34.8606 14.7893C34.8957 14.7081 34.9308 14.6268 34.9662 14.5455C34.9496 14.5455 34.9391 14.5334 34.9258 14.518C34.9209 14.5124 34.9156 14.5063 34.9096 14.5002ZM18.3963 7.41283C18.385 8.94127 19.6657 10.2319 21.2071 10.2433C22.7938 10.2546 24.0745 8.98655 24.0858 7.41283C24.0972 5.87307 22.8165 4.59371 21.2411 4.58239C19.6884 4.55975 18.4077 5.83911 18.3963 7.41283ZM19.745 7.41283C19.7564 6.60898 20.4704 5.90704 21.2638 5.91836C22.0571 5.92968 22.7485 6.63163 22.7485 7.41283C22.7371 8.21667 22.0231 8.92994 21.2297 8.9073C20.4364 8.89598 19.7337 8.19403 19.745 7.41283ZM13.4436 25.5731C13.5342 27.0902 12.3102 28.4035 10.7121 28.4941C9.22743 28.5733 7.90139 27.3619 7.79939 25.8448C7.68605 24.2484 8.91009 22.8785 10.5761 22.8332C12.1629 22.7879 13.4209 24.0333 13.4436 25.5731ZM12.1062 25.6523C12.0949 24.8485 11.4148 24.1579 10.6328 24.1579C9.82812 24.1579 9.13676 24.8485 9.13676 25.6636C9.13676 26.4562 9.83945 27.1581 10.6215 27.1581C11.4262 27.1468 12.1175 26.4562 12.1062 25.6523ZM40.463 7.89979C40.463 6.08831 39.0123 5.06935 37.6296 5.06935C36.0769 5.06935 34.8075 6.33739 34.7962 7.88846C34.7848 9.45086 36.0542 10.7642 37.6409 10.7415C39.239 10.7189 40.463 9.54144 40.463 7.89979ZM39.137 7.89979C39.1256 8.71495 38.4343 9.38293 37.6182 9.38293C36.8022 9.37161 36.1222 8.68099 36.1335 7.87714C36.1449 7.08462 36.8476 6.40532 37.6409 6.41664C38.4343 6.41664 39.137 7.11859 39.137 7.89979ZM24.2785 15.7684C24.3758 15.6649 24.4679 15.5667 24.5564 15.4722C24.7876 15.2255 24.9948 15.0045 25.2079 14.7834C25.5025 14.4891 25.9332 14.4777 26.2052 14.7381C26.4772 15.0099 26.4546 15.4288 26.1485 15.7231C25.9665 15.905 25.7758 16.0868 25.5712 16.282C25.4445 16.4028 25.3125 16.5287 25.1739 16.6628C25.2379 16.7208 25.3012 16.7777 25.3638 16.8339C25.6552 17.0958 25.9286 17.3415 26.1712 17.6025C26.5679 18.0328 26.3979 18.6215 25.8652 18.7574C25.5705 18.8253 25.3439 18.7007 25.1512 18.5083C25.0242 18.3764 24.8973 18.2422 24.7662 18.1037C24.6048 17.9331 24.4372 17.756 24.2558 17.5686C23.9759 17.8697 23.7266 18.13 23.4886 18.3785L23.4885 18.3787L23.4511 18.4177C23.0431 18.8366 22.6691 18.8932 22.3518 18.5762C22.0344 18.2705 22.0798 17.8743 22.4991 17.478C22.7085 17.2688 22.9252 17.067 23.1844 16.8255L23.1845 16.8254L23.1847 16.8253L23.3831 16.6402C23.1867 16.472 23.012 16.3169 22.8429 16.1667L22.8428 16.1666L22.8427 16.1664C22.7386 16.074 22.6367 15.9835 22.5331 15.893C22.4424 15.8137 22.3631 15.7344 22.2951 15.6326C22.0798 15.3495 22.1024 14.9646 22.3404 14.7268C22.5784 14.4891 22.9525 14.4551 23.2358 14.6928C23.3869 14.8136 23.5279 14.9545 23.669 15.0954C23.7395 15.1658 23.81 15.2363 23.8818 15.3042C23.9851 15.4074 24.0688 15.5106 24.1726 15.6386L24.1727 15.6387C24.2055 15.6792 24.2404 15.7222 24.2785 15.7684ZM13.6231 16.7993L13.5003 16.6855C13.6197 16.5662 13.7335 16.4568 13.8412 16.3531C14.0403 16.1616 14.2186 15.99 14.373 15.8137C14.577 15.5986 14.6904 15.3156 14.5317 15.0552C14.4184 14.874 14.203 14.6816 14.0103 14.6589C13.8063 14.6476 13.5457 14.7608 13.3757 14.908C13.168 15.0905 12.9908 15.3035 12.7994 15.5335L12.7993 15.5336L12.799 15.5339C12.7294 15.6176 12.6579 15.7035 12.5823 15.7911C12.4497 15.6543 12.33 15.5273 12.2171 15.4074L12.2171 15.4074L12.2171 15.4074L12.217 15.4073C12.0309 15.2097 11.8633 15.0318 11.6869 14.8627C11.3809 14.5683 10.9503 14.557 10.6896 14.8287C10.4289 15.1118 10.4516 15.5194 10.7576 15.8251C10.9315 16.0061 11.1148 16.1778 11.3103 16.3611L11.3103 16.3611C11.4205 16.4644 11.5345 16.5713 11.6529 16.6855C11.6131 16.7173 11.5758 16.7467 11.5405 16.7744L11.5404 16.7745C11.4251 16.8651 11.3317 16.9385 11.2449 17.0252C11.191 17.0818 11.1357 17.1378 11.0802 17.1939L11.0802 17.194L11.0802 17.194C10.914 17.3621 10.7462 17.5319 10.6102 17.7271C10.4289 17.9762 10.4969 18.2932 10.7009 18.5083C10.9049 18.7121 11.2336 18.78 11.4943 18.6329C11.6303 18.5536 11.7549 18.4517 11.8683 18.3385C12.0579 18.1396 12.2395 17.9328 12.4398 17.7049L12.5596 17.5686C12.6914 17.7048 12.8104 17.83 12.9226 17.948C13.0901 18.1243 13.2422 18.2844 13.3983 18.4404C13.7157 18.7574 14.1463 18.7914 14.4184 18.531C14.7017 18.2479 14.679 17.8177 14.3504 17.4894C14.124 17.2632 13.889 17.0456 13.6233 16.7994L13.6231 16.7993L13.6231 16.7993ZM37.9944 23.4481L37.9938 23.4476L37.9937 23.4475C37.7861 23.2572 37.5976 23.0843 37.4142 22.9011C37.0969 22.5728 37.0856 22.1652 37.3689 21.8821C37.6409 21.6217 38.0603 21.6557 38.3663 21.9501C38.4965 22.0745 38.6239 22.2018 38.7514 22.3291L38.7516 22.3293L38.7519 22.3296C38.8793 22.4569 39.0067 22.5842 39.137 22.7086C39.1433 22.7149 39.1531 22.7213 39.1784 22.7374C39.1983 22.7502 39.2279 22.7692 39.273 22.7992C39.329 22.7381 39.3857 22.6758 39.4429 22.6129C39.6401 22.3962 39.8442 22.172 40.055 21.9614C40.3723 21.6331 40.7917 21.6217 41.0637 21.8935C41.347 22.1765 41.3244 22.5728 40.9957 22.9011C40.8154 23.0812 40.6301 23.2514 40.4233 23.4413L40.4232 23.4414C40.3181 23.5379 40.2074 23.6396 40.089 23.7502L40.266 23.9091C40.5333 24.1487 40.774 24.3646 41.007 24.588C41.3357 24.905 41.347 25.3126 41.0523 25.5957C40.769 25.8674 40.3837 25.8447 40.0663 25.5391C39.7943 25.2787 39.5336 25.0183 39.273 24.7579C39.2679 24.7528 39.2606 24.75 39.2459 24.7444C39.2277 24.7375 39.1984 24.7263 39.1483 24.7012C39.0525 24.8013 38.955 24.9063 38.8559 25.0132L38.8557 25.0134C38.6968 25.1846 38.5337 25.3605 38.3663 25.5277C38.0603 25.8447 37.6522 25.8561 37.3802 25.5843C37.0969 25.3013 37.1082 24.8824 37.4369 24.5654C37.6633 24.3392 37.9068 24.1131 38.1822 23.8572L38.1824 23.8571L38.3096 23.7389C38.199 23.6358 38.0945 23.5399 37.9944 23.4481ZM8.95545 9.03212L8.95551 9.03205C9.03485 9.06602 9.04618 9.06602 9.04618 9.06602C9.17652 9.19056 9.30403 9.31793 9.43153 9.4453C9.55903 9.57267 9.68654 9.70004 9.81687 9.82457C10.1569 10.1642 10.5649 10.1869 10.8596 9.89251C11.1429 9.60946 11.1202 9.19056 10.7689 8.8509C10.6149 8.70349 10.4609 8.56334 10.2946 8.41196C10.1671 8.29592 10.0324 8.17329 9.88488 8.03574C9.94561 7.98075 10.0051 7.92704 10.0634 7.87433C10.3535 7.61229 10.6161 7.37507 10.8709 7.13C11.0976 6.91489 11.1089 6.64316 10.9729 6.37144C10.8482 6.09972 10.5422 5.95254 10.2476 6.04311C10.0775 6.0884 9.91888 6.20162 9.79421 6.31483C9.60136 6.48339 9.41991 6.66903 9.22966 6.86367C9.15156 6.94356 9.07198 7.02498 8.98952 7.10736C8.88867 7.00259 8.79357 6.90069 8.70115 6.80166C8.53389 6.62244 8.37539 6.45262 8.20749 6.29219C7.85615 5.95254 7.4368 5.92989 7.14213 6.22426C6.87012 6.49598 6.91545 6.93753 7.25546 7.26586C7.40379 7.41403 7.55579 7.55487 7.71564 7.70299C7.83671 7.81517 7.96227 7.93152 8.09416 8.05838C7.95053 8.19691 7.81556 8.32246 7.68641 8.44261C7.52001 8.5974 7.36327 8.74321 7.21013 8.89619C6.90412 9.2132 6.88145 9.64343 7.16479 9.91515C7.42547 10.1642 7.86748 10.1416 8.16216 9.84722C8.43414 9.57552 8.6948 9.30382 8.95545 9.03212Z" fill="white"/>
</svg>
