<svg width="37" height="47" viewBox="0 0 37 47" fill="none" xmlns="http://www.w3.org/2000/svg">
<path fill-rule="evenodd" clip-rule="evenodd" d="M35.9962 23.4688V20.8818V19.2726V16.8465V16.7228V15.0393V8.44184V8.44101C35.9962 6.64647 35.9962 4.85192 36.0209 3.045C36.0457 1.55964 35.5873 0.482745 34.1127 0H1.93302C1.38781 0.210427 0.867377 0.433232 0.495644 0.928355C0.11152 1.44823 0 2.03 0 2.64891V26.65V44.1897C0 45.9721 0.91694 46.9005 2.70126 46.9005H33.3692C34.6703 46.9005 35.5873 46.294 35.8846 45.1923C35.9714 44.8457 35.9962 44.4744 35.9962 44.1031V28.6676H35.9838V23.4688H35.9962ZM34.4473 24.8799V25.3627V25.9939V39.6098V44.1402C34.4473 45.1428 34.2242 45.3532 33.2453 45.3532H2.76322C1.8091 45.3532 1.58606 45.118 1.58606 44.1526V2.74793C1.58606 1.79482 1.8215 1.55964 2.77561 1.55964H22.6262H32.2417C32.7373 1.55964 33.2082 1.55964 33.6914 1.57201C34.1251 1.58439 34.3853 1.85671 34.4349 2.30232C34.4473 2.45086 34.4473 2.61177 34.4473 2.76031C34.4473 6.84507 34.4473 10.9298 34.4597 15.0146V15.4107V15.5345V18.2329V22.4043V24.8799H34.4473ZM26.6038 9.72911H7.14972V11.2392H26.6038V9.72911ZM7.14972 16.7104H28.8714V18.2205H7.14972V16.7104ZM28.8714 21.1169H7.14972V22.627H28.8714V21.1169ZM7.14972 25.5359H28.8714V27.0461H7.14972V25.5359ZM28.8714 29.9426H7.14972V31.4527H28.8714V29.9426ZM7.14972 34.3615H28.8714V35.8716H7.14972V34.3615Z" fill="white"/>
</svg>
