<svg width="44" height="47" viewBox="0 0 44 47" fill="none" xmlns="http://www.w3.org/2000/svg">
<path fill-rule="evenodd" clip-rule="evenodd" d="M1.92062 0H34.1003C35.5873 0.482745 36.0334 1.55964 36.0086 3.045C35.9739 5.53219 35.9817 8.02545 35.9895 10.5163C35.9929 11.5832 35.9962 12.6496 35.9962 13.7149V14.21L36.0207 14.2163C36.0589 14.2263 36.0914 14.2348 36.1325 14.2348C36.404 13.9472 36.6809 13.665 36.956 13.3846L36.9562 13.3845L36.9566 13.3841L36.9568 13.3838C37.0959 13.2422 37.2344 13.101 37.3716 12.9598C37.6566 12.6751 37.9664 12.5637 38.3753 12.737C38.4868 12.7865 38.6975 12.7247 38.7842 12.638C39.1185 12.3226 39.439 12.0002 39.7611 11.676L39.7612 11.676C39.8688 11.5677 39.9766 11.4592 40.0853 11.3507C40.5809 10.8679 40.965 10.8679 41.4607 11.3507C42.105 11.982 42.737 12.6132 43.3689 13.2569C43.8769 13.7768 43.8769 14.1605 43.3689 14.668C43.1195 14.9171 42.867 15.1631 42.616 15.4076L42.6158 15.4078C42.3681 15.6491 42.122 15.8889 41.882 16.1286C42.1918 16.7847 42.1546 16.9951 41.6713 17.4778C41.3853 17.7635 41.0879 18.0492 40.779 18.3459L40.742 18.3814L41.6342 19.2726C42.2537 19.8916 42.2537 20.2258 41.6342 20.8447L36.6405 25.833C36.5893 25.8842 36.5381 25.932 36.4887 25.9782L36.4886 25.9783L36.4886 25.9783L36.4886 25.9783L36.4885 25.9784C36.4422 26.0217 36.3974 26.0635 36.3555 26.1053C36.3038 26.0709 36.2547 26.0391 36.2021 26.005L36.202 26.0049C36.1413 25.9656 36.0758 25.9232 35.9962 25.8702V26.4767V44.1154C35.9962 44.4744 35.9838 44.8581 35.8847 45.2047C35.5873 46.3064 34.6827 46.9129 33.3693 46.9129H2.70127C0.916949 46.9129 0 45.9845 0 44.2021V26.6624V2.66128C0 2.03 0.11152 1.44823 0.495645 0.940733C0.842596 0.433232 1.37541 0.210427 1.92062 0ZM17.5458 36.1563C17.1865 35.686 17.3352 35.2775 17.521 34.869C17.7239 34.4144 17.9195 33.9548 18.1154 33.4948C18.3621 32.9153 18.6092 32.3348 18.8717 31.7621C19.0328 31.4279 19.2434 31.0937 19.5036 30.8338L19.5074 30.83C24.3634 25.9667 29.2195 21.1034 34.088 16.2648C34.3358 16.0172 34.4349 15.7697 34.4349 15.4231C34.4225 11.2158 34.4225 6.9962 34.4225 2.78895V2.78506C34.4225 2.63653 34.4225 2.47561 34.4101 2.32708C34.373 1.88147 34.1003 1.60915 33.6667 1.59677C33.1209 1.57039 32.569 1.57524 31.9974 1.58027C31.7643 1.58232 31.528 1.58439 31.2876 1.58439V2.11665V8.15715C31.2876 8.20224 31.2921 8.25075 31.2968 8.29991C31.3074 8.41271 31.3183 8.52893 31.2752 8.61513C31.2606 8.64576 31.2458 8.67759 31.2307 8.71006L31.2306 8.71042C31.1178 8.95342 30.9886 9.23191 30.7919 9.30831C30.5689 9.39495 30.1972 9.28355 29.9617 9.14739C29.7682 9.04194 29.6121 8.86788 29.4581 8.69604L29.4581 8.69603C29.3951 8.62582 29.3325 8.55598 29.2678 8.49135C28.9209 8.12001 28.5739 7.73629 28.2146 7.32782C28.0546 7.48766 27.9011 7.64008 27.7529 7.78741L27.7528 7.78745C27.327 8.21054 26.9434 8.5917 26.5666 8.98648C26.2692 9.29593 25.947 9.51873 25.5133 9.33306C25.0796 9.15977 25.0177 8.76367 25.0177 8.34282C25.0259 6.95693 25.0232 5.57655 25.0204 4.19433L25.0204 4.19284C25.019 3.50154 25.0177 2.80978 25.0177 2.11665V1.59677H24.4725H2.73843C1.77193 1.59677 1.54889 1.81958 1.54889 2.78506V44.1897C1.54889 45.1552 1.77193 45.3904 2.72605 45.3904H33.2082C34.1995 45.3904 34.4101 45.1676 34.4101 44.1773V25.3998V24.917L34.3923 24.9062L34.3604 24.8861C34.3194 24.8601 34.2813 24.8358 34.2367 24.818C34.2093 24.861 34.1831 24.9078 34.1566 24.9551C34.0992 25.0575 34.0403 25.1627 33.964 25.2389C33.1289 26.0731 32.2938 26.9082 31.4584 27.7434L31.4461 27.7557L31.4461 27.7558L31.446 27.7558C28.9267 30.2748 26.4057 32.7955 23.8777 35.3022C23.6299 35.5498 23.3077 35.7602 22.9855 35.9088C22.3875 36.179 21.7814 36.437 21.1765 36.6944L21.1764 36.6945L21.1763 36.6945L21.1762 36.6945C20.7283 36.8852 20.281 37.0755 19.8382 37.2704C19.4293 37.456 19.0328 37.5674 18.5619 37.2208C18.3235 37.4816 18.0852 37.7372 17.8528 37.9865C17.5777 38.2814 17.311 38.5673 17.0626 38.8424C16.6537 38.471 16.2943 38.1368 15.8978 37.7655C16.4554 37.1961 16.9882 36.6762 17.5458 36.1563ZM23.6051 33.2351L36.7892 20.0648L36.7878 20.0635L36.787 20.0627L36.7859 20.0615C36.093 19.3694 35.3756 18.6527 34.7075 17.973L21.5234 31.1432C22.1925 31.824 22.8988 32.5419 23.6051 33.2351ZM26.6161 6.58513C26.6347 6.59751 26.6502 6.60989 26.6657 6.62226L26.6657 6.62229C26.6812 6.63466 26.6967 6.64703 26.7152 6.6594C26.8391 6.52947 26.9599 6.39645 27.0807 6.26343L27.0808 6.2633L27.0809 6.26317C27.2017 6.13015 27.3225 5.99713 27.4463 5.8672C27.9791 5.33495 28.3509 5.33495 28.8961 5.8672C29.0157 5.98666 29.1381 6.10324 29.2649 6.22389C29.4008 6.35327 29.5416 6.48733 29.6891 6.63464V1.58439H26.6161V6.58513ZM38.016 14.6804L35.9095 16.7847L37.9912 18.8642L40.0976 16.7599L38.016 14.6804ZM20.309 32.3563C20.1786 32.6559 20.0498 32.9585 19.9203 33.2626C19.6806 33.8254 19.4389 34.3931 19.1815 34.9557C19.0204 35.3022 19.0451 35.5251 19.4169 35.7107C20.4082 35.2899 21.4119 34.8566 22.4031 34.4234C22.0462 34.073 21.7015 33.7317 21.3583 33.392L21.3574 33.3911L21.3565 33.3902L21.3563 33.39C21.0093 33.0464 20.6638 32.7045 20.309 32.3563ZM36.021 24.0877L40.0605 20.0525C40.0258 20.0062 39.9886 19.9564 39.9491 19.9033C39.8617 19.7859 39.7625 19.6527 39.6516 19.5078C39.3117 19.8473 38.9792 20.1856 38.6499 20.5207L38.6494 20.5212C37.9342 21.2489 37.2337 21.9616 36.5042 22.6395C36.021 23.0851 35.8971 23.5431 36.021 24.0877ZM40.8163 12.9351C40.4322 13.3064 40.0729 13.653 39.7507 13.9625C39.8922 14.1088 40.0316 14.2573 40.1698 14.4044L40.1701 14.4047C40.3707 14.6183 40.5687 14.8291 40.7668 15.027L40.8014 14.9912L40.8015 14.9911L40.8018 14.9908C41.1487 14.6323 41.4848 14.285 41.8324 13.9377C41.4981 13.6161 41.1513 13.2697 40.817 12.9357L40.8169 12.9357L40.8163 12.9351ZM26.5667 15.6705V17.1806H4.7211V15.6705H26.5667ZM4.70876 20.362V21.8597H26.5543V20.362H4.70876ZM18.7727 25.0408V26.5261H4.70876V25.0408H18.7727ZM12.4904 12.4772V10.9671H4.70876V12.4772H12.4904Z" fill="white"/>
</svg>
